<?xml version="1.0" encoding="utf-8"?>
<!-- Generator: Adobe Illustrator 25.2.1, SVG Export Plug-In . SVG Version: 6.00 Build 0)  -->
<svg version="1.1" id="Layer_1" xmlns:xodm="http://www.corel.com/coreldraw/odm/2003"
	 xmlns="http://www.w3.org/2000/svg" xmlns:xlink="http://www.w3.org/1999/xlink" x="0px" y="0px" viewBox="0 0 270.6 64.4"
	 style="enable-background:new 0 0 270.6 64.4;" xml:space="preserve">
<style type="text/css">
	.st0{fill:#0F41D5;}
	.st1{font-family:'Rockwell';}
	.st2{font-size:12.9415px;}
	.st3{enable-background:new    ;}
	.st4{fill:#4F3FE8;}
	.st5{font-family:'BritannicBold';}
	.st6{font-size:31.6347px;}
	.st7{fill:#EA3EBA;}
	.st8{fill:#FF0B0B;}
	.st9{fill:#1EA6BF;}
	.st10{fill:#5E2245;}
	.st11{fill:#146470;}
	.st12{fill:#238292;}
	.st13{fill:#8E509E;}
	.st14{fill:#553668;}
	.st15{fill:#6A53A2;}
	.st16{fill:#C9509C;}
	.st17{fill:#3D4FA1;}
	.st18{fill:#5894CE;}
	.st19{fill:#33429A;}
	.st20{fill:#31286C;}
	.st21{fill:#3D5DA9;}
	.st22{fill:#3D7BBE;}
	.st23{fill:#3C6AB2;}
</style>
<g>
	<g transform="translate(120.791596, 72.571339)">
	</g>
</g>
<g>
	<g transform="translate(160.438761, 72.571339)">
	</g>
</g>
<g>
	<g transform="translate(177.345154, 72.571339)">
	</g>
</g>
<g>
	<g transform="translate(208.613764, 72.571339)">
	</g>
</g>
<g>
	<g transform="translate(105.17357, 26.286019)">
	</g>
</g>
<g>
	<g transform="translate(125.65485, 26.286019)">
	</g>
</g>
<g>
	<g transform="translate(169.213306, 26.286019)">
	</g>
</g>
<g>
	<g transform="translate(206.36282, 26.286019)">
	</g>
</g>
<text transform="matrix(1 0 0 1 76.4424 12.3394)" class="st0 st1 st2">MITRA PT Media Sarana Akses</text>
<text transform="matrix(1 0 0 1 74.7349 40.6865)" class="st3"><tspan x="0" y="0" class="st4 st5 st6">MENJO</tspan><tspan x="92.7" y="0" class="st7 st5 st6"> - NET</tspan></text>
<g>
	<g>
		<path class="st8" d="M87.1,53.8c0-2.1,0-4,0.1-5.1h-0.1c-0.4,1.4-2.6,6.6-3.9,10h-0.9c-1-2.6-3.2-8.4-3.7-10l0,0
			c0.1,1.2,0.1,3.7,0.1,5.5v4.5h-0.8V48.1h1.2c1.4,3.6,3.3,8.3,3.7,9.6l0,0c0.2-0.8,2.4-6,3.8-9.6h1.2v10.6H87L87.1,53.8L87.1,53.8z
			"/>
		<path class="st8" d="M91.8,48.1v6.4c0,2.8,1.6,3.5,3.1,3.5c1.8,0,3.1-0.7,3.1-3.5v-6.4h0.9v6.3c0,3.3-1.7,4.3-4,4.3
			c-2.1,0-3.9-1.2-3.9-4.2v-6.5H91.8z"/>
		<path class="st8" d="M101.8,48.1h0.8v9.8h5.7l-0.1,0.7h-6.3V48.1z"/>
		<path class="st8" d="M112.3,48.8h-3.5v-0.7h7.9v0.7h-3.6v9.8h-0.9L112.3,48.8L112.3,48.8z"/>
		<path class="st8" d="M119.2,48.1v10.6h-0.8V48.1H119.2z"/>
		<path class="st8" d="M131.4,53.8c0-2.1,0-4,0.1-5.1h-0.1c-0.4,1.4-2.6,6.6-3.9,10h-0.8c-1-2.6-3.2-8.4-3.7-10l0,0
			c0.1,1.2,0.1,3.7,0.1,5.5v4.5h-0.8V48.1h1.2c1.4,3.6,3.3,8.3,3.7,9.6l0,0c0.2-0.8,2.4-6,3.8-9.6h1.2v10.6h-0.8V53.8z"/>
		<path class="st8" d="M141.5,53.5h-5.4V58h5.9l-0.1,0.7h-6.6V48.1h6.5v0.7H136v3.9h5.4L141.5,53.5L141.5,53.5z"/>
		<path class="st8" d="M144.2,48.1h3.5c2.9,0,4.9,2,4.9,5.2c0,3.2-1.9,5.4-4.9,5.4h-3.5V48.1z M145,57.9h2.5c2.8,0,4.2-1.9,4.2-4.6
			c0-2.3-1.2-4.5-4.2-4.5H145V57.9z"/>
		<path class="st8" d="M155.9,48.1v10.6h-0.8V48.1H155.9z"/>
		<path class="st8" d="M160.1,55l-1.4,3.7h-0.9l3.9-10.6h0.9l4,10.6h-0.9l-1.4-3.7H160.1z M164.2,54.3c-1.2-3.2-1.8-4.7-2-5.4l0,0
			c-0.3,0.8-0.9,2.7-1.9,5.4H164.2z"/>
		<path class="st8" d="M181.4,51.9l-2.7,4.1c-1.3,2-2.2,2.9-3.9,2.9c-1.7,0-2.7-1.4-2.7-2.7s0.6-2.2,2.8-3.5c1.5-1,2.1-1.4,2.1-2.4
			c0-0.9-0.5-1.7-1.5-1.7c-0.9,0-1.6,0.6-1.6,1.7c0,0.6,0.5,1.3,1.4,2.2l6.3,6.2h-1.2l-5.7-5.6c-1-0.9-1.6-1.7-1.6-2.7
			c0-1.2,0.8-2.4,2.4-2.4c1.4,0,2.3,1,2.3,2.3c0,1-0.6,1.7-2.4,2.8c-2.2,1.2-2.5,1.9-2.5,2.9c0,1.1,0.9,2,1.9,2c1.2,0,2-0.4,3.4-2.6
			l2.2-3.6L181.4,51.9L181.4,51.9z"/>
		<path class="st8" d="M187.8,58.7V48.1h1.2c1.7,2.5,5.5,8.4,6.2,9.6l0,0c-0.1-1.5-0.1-3.1-0.1-4.8V48h0.9v10.6h-1.2
			c-1.6-2.4-5.5-8.6-6.3-9.8l0,0c0.1,1.4,0.1,2.9,0.1,4.8v4.9h-0.9V58.7z"/>
		<path class="st8" d="M205.2,53.5h-5.4V58h5.9l-0.1,0.7H199V48.1h6.5v0.7h-5.7v3.9h5.4L205.2,53.5L205.2,53.5z"/>
		<path class="st8" d="M210.1,48.8h-3.5v-0.7h7.9v0.7h-3.6v9.8H210L210.1,48.8L210.1,48.8z"/>
		<path class="st8" d="M218.1,58.7l-2.9-10.6h0.9c0.7,2.5,2.3,8.4,2.5,9.6l0,0c0.2-1,1.9-6.8,2.7-9.6h0.9c0.7,2.6,2.4,8.8,2.5,9.6
			l0,0c0.4-1.5,2.1-7,2.8-9.6h0.9l-3.2,10.6h-0.9c-0.7-2.5-2.4-8.6-2.5-9.5l0,0c-0.3,1.4-1.9,6.9-2.7,9.5H218.1z"/>
		<path class="st8" d="M239.2,53.3c0,2.9-1.5,5.5-4.8,5.5c-2.9,0-4.7-2.4-4.7-5.5c0-3,1.7-5.5,4.8-5.5
			C237.4,48,239.2,50.3,239.2,53.3z M230.5,53.4c0,2.4,1.4,4.7,3.9,4.7c2.7,0,3.9-2.2,3.9-4.7c0-2.4-1.3-4.6-3.9-4.6
			C231.8,48.7,230.5,51,230.5,53.4z"/>
		<path class="st8" d="M242.5,53.7v5h-0.9V48.1h3.8c2.1,0,3.2,1.2,3.2,2.8c0,1.4-0.8,2.2-2,2.4c1.1,0.3,1.8,0.9,1.8,2.7v0.4
			c0,0.7-0.1,1.7,0.1,2.2h-0.8c-0.2-0.4-0.1-1.3-0.1-2.2v-0.3c0-1.7-0.5-2.4-2.5-2.4H242.5z M242.5,53h2.5c1.9,0,2.7-0.7,2.7-2.1
			c0-1.3-0.9-2-2.5-2h-2.8L242.5,53C242.4,53,242.5,53,242.5,53z"/>
		<path class="st8" d="M251.2,48.1h0.8v5.5c0.9-0.8,3.9-3.7,5.8-5.5h1.1l-4.7,4.5l5,6h-1l-4.6-5.5l-1.5,1.3v4.2h-0.8V48.1z"/>
	</g>
</g>
<path class="st9" d="M18.7,7.3c2.1-1.6,4.3-2.7,6.8-3.7c4.7-1.9,9.6-2.5,14.5-2c1.7,0.1,3.4,0.4,5,1c0,0.1,0.1,0.1,0.1,0.1l0,0
	c-0.1,0.2,0.1,0.3,0.2,0.4c0.5,0.4,0.8,0.9,1,1.5c-0.6-0.1-1.2-0.4-1.7-0.5c-3.6-0.9-7.2-1.2-10.9-0.9c-3.4,0.4-6.5,1.2-9.6,2.7
	c-1.4,0.6-2.7,1.6-4.1,2.4C20,8.1,20,8,20,7.9C19.4,7.9,19.2,7.3,18.7,7.3z"/>
<path class="st10" d="M40,62.9c-7.2,0.7-13.8-0.9-19.9-4.7C20,58.2,20,58.1,20,58c0.2-0.6,0.7-0.8,1.3-0.9c0.2,0,0.4,0.1,0.6,0.3
	c1.2,0.8,2.6,1.4,4,1.9c0.8,0.4,1.7,0.5,2.4,0.9c0.2,0.4,0.6,0.7,0.6,1.2c0,0.1,0,0.3,0.2,0.2c0.1-0.5,0-0.9-0.2-1.4
	c1.6,0.4,3.1,0.7,4.7,0.9c2.4,0.2,5,0.2,7.4-0.1c0,0.3-0.1,0.5-0.3,0.6C40.4,62.2,40.1,62.5,40,62.9z"/>
<path class="st11" d="M57.2,9.2c1.7,1.4,3.2,3,4.5,4.8c0.3,0.4,0.6,0.6,0.7,1.2c-0.3,0-0.4-0.2-0.6-0.4c-0.4-0.3-0.7-0.8-1.2-0.9
	c0,0,0,0,0-0.1l0,0c0,0,0.1,0,0.1,0.1c0.3,0.7,0.9,1.1,1.5,1.5c0.1,0.1,0.5,0.3,0.4,0.4c-0.4,0.4,0,0.8-0.1,1.2
	c0.4-0.3,0.6-0.7,0.8-1.1c1.3,1.9,2.2,4,3,6.3c-0.4,0.2-0.9,0.4-1.4,0.5c-0.6-1.8-1.5-3.6-2.4-5.2c0-0.1,0-0.2-0.1-0.2
	c-0.5-0.8-1.1-1.6-1.6-2.3c-1.9-2.5-4-4.7-6.5-6.5c0.1-0.1,0.4-0.3,0.5-0.4c0.1-0.1,0.2-0.1,0.3-0.1c0.2,0.6,0.9,0.7,0.9,1.4
	C55.8,9.2,55.9,9.1,56,9c0.4,0.5,0.9-0.1,1.3,0.1l0,0c0,0.1,0,0.1,0.1,0.1C57.1,9.2,57.2,9.2,57.2,9.2z M60.2,13.6L60.2,13.6
	C60.2,13.6,60.2,13.6,60.2,13.6C60.2,13.6,60.2,13.6,60.2,13.6C60.2,13.6,60.2,13.6,60.2,13.6z"/>
<path class="st11" d="M67.3,36.3c-0.4,2.9-1.2,5.8-2.4,8.4c-0.4,0-0.7,0-0.9-0.4c-0.1-0.1-0.3-0.3-0.4-0.2c0.4-1.2,0.9-2.4,1.3-3.6
	c1-3.3,1.3-6.7,1.2-10.1c0.6-0.2,1,0.4,1.6,0.4c0.1,1.3,0.1,2.6-0.1,3.9c-0.3,0-0.7-0.1-0.7,0.4C66.8,35.5,66.8,36.1,67.3,36.3z"/>
<path class="st12" d="M9.7,46.9c-1.3-2.1-2.1-4.4-2.7-6.8c-0.4-1.6-0.7-3.2-0.9-4.8c0.5,0.1,1.1,0.1,1.6,0.1
	c0.1,1.2,0.4,2.3,0.6,3.5c0.5,2.4,1.4,4.5,2.4,6.8C10.5,46.2,10,46.5,9.7,46.9z"/>
<path class="st12" d="M6.3,27.6c0.1-1.7,0.6-3.2,1.2-4.8c0.7-2.1,1.6-4.1,2.7-6c0.1,0.3,0.4,0.5,0.5,0.9c0,0.1,0.2,0.4,0.5,0.4
	c-1.5,2.7-2.5,5.6-3.2,8.7C7.4,26.8,7,27.4,6.3,27.6z"/>
<path class="st13" d="M53.2,58.3c-2.7,1.8-5.8,3.1-9,3.9c-0.8,0.2-1.6,0.3-2.3,0.5c0-0.1,0-0.4-0.3-0.4c-0.3,0-0.2,0.3-0.2,0.4
	c-0.3,0.1-0.6,0.1-0.9,0.1c0.4-0.8,1-1.2,1.6-0.8c0.6,0.4,1.1,0.1,1.4-0.2c0.3-0.3,0.5-0.3,0.8-0.2s0.6,0.1,0.6-0.3
	c-0.1-0.6,0.3-0.7,0.7-0.6c0.6,0.1,0.9-0.1,0.8-0.8c1.9-0.7,3.8-1.6,5.6-2.7C52.5,57.6,53,57.8,53.2,58.3z"/>
<path class="st9" d="M6.3,27.6C7,27.4,7.4,26.9,8,26.7c-0.3,1.6-0.5,3.2-0.5,4.9c0,1.3,0,2.7,0.1,4c-0.5-0.1-1.1-0.1-1.6-0.1
	C5.8,32.7,5.8,30.1,6.3,27.6z"/>
<path class="st11" d="M46.4,4.5c-0.2-0.6-0.6-1.1-1-1.5c-0.1-0.1-0.3-0.2-0.2-0.4c0.8,0,1.5,0.4,2.2,0.6c0.1,0.4-0.4,0.5-0.4,0.9
	C47.4,4,47.7,3.8,48,3.5c1.9,0.7,3.8,1.7,5.5,2.9c0,0.4-0.1,0.7,0.1,1c0.1,0.1,0,0.3-0.1,0.3s-0.3,0.1-0.4,0.3
	C51,6.6,48.8,5.4,46.4,4.5z"/>
<path class="st11" d="M9.7,46.9c0.3-0.4,0.8-0.7,1-1.3c1.1,2,2.4,3.9,3.9,5.7c0.3,0.4,0.6,0.6,0.8,1c-0.1,0.3-0.1,0.4-0.4,0.5
	c-0.5,0.1-0.7-0.2-0.8-0.6c-0.1,0.3-0.2,0.5-0.3,0.6C12.1,51.1,10.8,49.1,9.7,46.9z"/>
<path class="st14" d="M60.5,51.9c-1.5,1.9-3.2,3.5-5.2,4.9c-0.4-0.1-0.6-0.4-0.6-0.8c0-0.2-0.1-0.4-0.4-0.4c1.8-1.4,3.5-3,5-4.7
	C59.7,51.3,60.1,51.6,60.5,51.9z"/>
<path class="st11" d="M14.1,11.3c1.2-1.4,2.6-2.6,4-3.7c0.7,0.1,0.9,0.6,0.9,1.2c-1.2,0.9-2.4,1.9-3.4,3c-0.2,0.2-0.4,0.5-0.7,0.5
	c-0.1-0.3,0.1-0.6-0.4-0.6l0,0C14.6,11.4,14.4,11.4,14.1,11.3z"/>
<path class="st14" d="M21.3,57.2c-0.5,0.1-1.1,0.3-1.3,0.9c-0.2-0.1-0.4-0.2-0.5-0.3c0.1-0.3,0.1-0.5,0-0.8
	c-0.1-0.4-0.6-0.4-0.8-0.5c-0.2-0.1-0.3,0.3-0.4,0.5c-0.8-0.6-1.6-1.2-2.3-1.9c0.1-0.1,0.1-0.3,0.1-0.4c-0.1-0.4,0.1-0.6,0.5-0.6
	c0.1,0,0.1-0.1,0.2-0.1c1.1,0.9,2.2,1.9,3.4,2.7C20.7,56.7,21,56.8,21.3,57.2z"/>
<path class="st12" d="M67.6,30.8c-0.6,0-1-0.6-1.6-0.4c0-0.1,0-0.1,0-0.3h0.1c0,0,0-0.1-0.1-0.1c-0.2-1.4-0.4-2.7-0.6-4
	c0.2,0,0.4,0,0.5,0.1c0.3,0.4,0.7,0.4,1.2,0.4C67.4,27.9,67.6,29.4,67.6,30.8z"/>
<path class="st10" d="M63.6,44.1c0.2,0,0.4,0.1,0.4,0.2c0.2,0.4,0.6,0.4,0.9,0.4c-0.5,1.3-1.2,2.5-1.9,3.6c-0.1,0.1-0.1,0.2-0.1,0.3
	c-0.4-0.4-0.9-0.4-1.3-0.7C62.3,46.6,63,45.4,63.6,44.1z"/>
<path class="st14" d="M46.4,59.9c0.1,0.6-0.1,0.9-0.8,0.8c-0.5-0.1-0.8,0-0.7,0.6c0.1,0.4-0.3,0.4-0.6,0.3c-0.4-0.1-0.5-0.1-0.8,0.2
	c-0.4,0.3-0.8,0.6-1.4,0.2c-0.6-0.4-1.2,0-1.6,0.8c-0.1,0-0.4,0.1-0.5,0.1c0.1-0.4,0.4-0.7,0.6-1c0.1-0.2,0.3-0.4,0.3-0.6
	C42.8,61,44.6,60.5,46.4,59.9z"/>
<path class="st11" d="M11.1,18c-0.3,0-0.5-0.2-0.5-0.4c0-0.4-0.4-0.6-0.5-0.9c0.4-0.9,0.9-1.7,1.5-2.4c0.5,0.2,0.9,0.4,1.4,0.6
	C12.4,16,11.8,17,11.1,18z"/>
<path class="st14" d="M61.6,47.9c0.4,0.3,0.9,0.4,1.3,0.7c-0.4,0.8-0.9,1.5-1.5,2.2c-0.6,0.1-0.9-0.4-1.3-0.8
	C60.6,49.3,61.1,48.6,61.6,47.9z"/>
<path class="st12" d="M53.2,7.9c0.1-0.1,0.2-0.2,0.4-0.3c0.2,0,0.3-0.1,0.1-0.3c-0.2-0.3-0.1-0.6-0.1-1C54.8,7.1,56,8,57.1,9
	c-0.4-0.1-0.9,0.4-1.3-0.1c-0.1,0.1-0.1,0.2-0.3,0.4c0-0.7-0.7-0.9-0.9-1.4c0-0.1-0.2,0-0.3,0.1c-0.1,0.1-0.4,0.3-0.5,0.4
	C53.6,8.3,53.4,8.1,53.2,7.9z"/>
<path class="st11" d="M67.1,26.5c-0.4,0.1-0.9,0-1.2-0.4C65.8,26,65.6,26,65.5,26c-0.1-0.6-0.3-1.2-0.4-1.9c0.4,0,0.9,0.1,1.2-0.5
	c0,0,0.1,0,0.2-0.1C66.8,24.6,66.9,25.5,67.1,26.5z"/>
<path class="st11" d="M12.6,13.1c0.4-0.5,0.7-1,1.2-1.4c0.3,0,0.5,0,0.8,0l0,0c-0.1,0.4,0.1,0.8,0.1,1.2c-0.4,0.5-0.8,1.2-1.4,1.6
	c-0.1-0.1-0.1-0.3-0.1-0.4C13.2,13.6,13.2,13.2,12.6,13.1z"/>
<path class="st13" d="M54.5,55.6c0.2,0.1,0.4,0.2,0.4,0.4c-0.1,0.4,0.2,0.6,0.6,0.8c-0.5,0.5-1.2,0.9-1.8,1.2c0-0.3-0.1-0.5-0.3-0.7
	c-0.1-0.2-0.4-0.4-0.4-0.6C53.5,56.3,54,56,54.5,55.6z"/>
<path class="st12" d="M66.4,23.7c-0.1,0-0.2,0-0.2,0.1c-0.2,0.6-0.7,0.4-1.2,0.5c-0.1-0.4-0.3-0.9-0.4-1.4c0.5-0.1,1-0.3,1.4-0.5
	C66.2,22.7,66.3,23.2,66.4,23.7z"/>
<path class="st14" d="M13.9,52.8c0.1-0.2,0.1-0.4,0.3-0.6c0.1,0.4,0.4,0.7,0.8,0.6c0.4-0.1,0.4-0.3,0.4-0.5c0.2,0.1,0.4,0.2,0.4,0.5
	c-0.1,0-0.2,0.1-0.2,0.3c0,0.6,0.1,1.1,0.2,1.7C14.9,54.2,14.4,53.5,13.9,52.8z"/>
<path class="st12" d="M12.6,13.1c0.6,0.1,0.6,0.6,0.6,0.9c0,0.1,0,0.3,0.1,0.4c0,0.2-0.1,0.4-0.3,0.5c-0.5-0.2-0.9-0.4-1.4-0.6
	C11.9,13.9,12.3,13.5,12.6,13.1z"/>
<path class="st15" d="M60.1,50c0.4,0.4,0.6,0.9,1.3,0.8c-0.2,0.4-0.5,0.8-0.9,1.1c-0.4-0.3-0.8-0.6-1.2-1
	C59.7,50.6,59.9,50.3,60.1,50z"/>
<path class="st10" d="M15.7,54.7c-0.1-0.5-0.2-1.1-0.2-1.7c0-0.2,0.1-0.2,0.2-0.3c0.6,0.2,0.9,0.7,1.2,1.1c0,0.1-0.1,0.2-0.2,0.2
	c-0.4-0.1-0.6,0.2-0.5,0.6c0,0.1,0,0.4-0.1,0.4C15.9,54.9,15.7,54.9,15.7,54.7z"/>
<path class="st12" d="M63,16c-0.3,0.3-0.4,0.7-0.8,1.1c0.1-0.5-0.3-0.9,0.1-1.2c0.1-0.1-0.1-0.3-0.4-0.4c-0.6-0.4-1.2-0.8-1.5-1.5
	l0,0c0.5,0.1,0.8,0.6,1.2,0.9c0.2,0.1,0.4,0.3,0.6,0.4C62.7,15.3,62.8,15.7,63,16z"/>
<path class="st12" d="M19.1,8.9c0-0.6-0.3-1.1-0.9-1.2c0.1-0.1,0.3-0.4,0.5-0.4c0.4,0.1,0.7,0.6,1.2,0.6C20,7.9,20,8.1,20,8.2
	C19.7,8.4,19.5,8.7,19.1,8.9z"/>
<path class="st16" d="M53,56.7c-0.1,0.3,0.2,0.5,0.4,0.6c0.2,0.2,0.3,0.4,0.3,0.7c-0.1,0.1-0.2,0.3-0.4,0.3c-0.3-0.5-0.7-0.7-1.2-1
	C52.3,57.1,52.6,56.9,53,56.7z"/>
<path class="st12" d="M67.3,36.3c-0.6-0.3-0.6-0.8-0.6-1.3c0-0.4,0.4-0.3,0.7-0.4C67.6,35.2,67.5,35.8,67.3,36.3z"/>
<path class="st15" d="M18.4,57c0.1-0.2,0.1-0.6,0.4-0.5c0.3,0.1,0.7,0.1,0.8,0.5c0.1,0.3,0.1,0.5,0,0.8C19.1,57.5,18.7,57.3,18.4,57
	z"/>
<path class="st12" d="M48,3.5c-0.3,0.3-0.6,0.5-1.1,0.6c0.1-0.4,0.6-0.5,0.4-0.9C47.6,3.4,47.9,3.5,48,3.5z"/>
<path class="st12" d="M14.6,11.7c-0.3,0-0.5,0-0.8,0c0.1-0.1,0.2-0.3,0.4-0.4C14.4,11.4,14.6,11.4,14.6,11.7z"/>
<path class="st12" d="M57.2,9.2C57.2,9.2,57.1,9.2,57.2,9.2c-0.1,0-0.1-0.1-0.1-0.1C57.1,9.1,57.2,9.1,57.2,9.2z"/>
<path class="st11" d="M45.1,2.7c-0.1,0-0.1-0.1-0.1-0.1C45.1,2.6,45.1,2.6,45.1,2.7z"/>
<path class="st13" d="M28.2,60.3c0.2-0.1,0.4,0,0.6,0.1c0.2,0.4,0.3,0.9,0.2,1.4c-0.2,0-0.2-0.1-0.2-0.2
	C28.8,61.1,28.5,60.7,28.2,60.3z"/>
<path class="st12" d="M62.1,17.5C62,17.4,62,17.3,62,17.3C62.1,17.3,62.2,17.3,62.1,17.5z"/>
<path class="st12" d="M60.2,13.6C60.2,13.6,60.2,13.6,60.2,13.6C60.2,13.6,60.2,13.6,60.2,13.6C60.2,13.6,60.2,13.6,60.2,13.6
	L60.2,13.6z"/>
<path class="st12" d="M60.5,13.8C60.4,13.8,60.4,13.8,60.5,13.8C60.4,13.8,60.4,13.8,60.5,13.8L60.5,13.8L60.5,13.8z"/>
<path class="st12" d="M15,12.4c0.2,0.4-0.1,0.4-0.3,0.6c0-0.4-0.2-0.8-0.1-1.2C15.1,11.7,14.9,12.1,15,12.4z"/>
<path class="st11" d="M66.1,30.1c0-0.1,0-0.1,0-0.1C66.1,30.1,66.1,30.1,66.1,30.1C66.1,30.1,66.1,30.1,66.1,30.1z"/>
<path class="st16" d="M51.3,17.1c0.1,0,0.1,0,0.3,0c0.1,0.3,0.2,0.3,0.4,0c0.6,0,1.3,0,1.9-0.1c0.3,0,0.4,0.1,0.4,0.4
	c-0.1,6.2,0.1,12.3-0.1,18.5c-0.1,1.8-0.8,3.4-2.4,4.2c-2.3,1.2-4.7,1.2-7.2,0.3c0-0.2,0-0.4,0-0.7c0-0.9,0.1-1.7,0.6-2.3
	c0.2-0.3,0.6-0.6,0.3-1.1h0.1c0.1,0,0.1,0,0.1-0.1c0,0,0-0.1,0.1-0.1s0.1,0,0.1-0.1V36c0.4,0.1,0.4-0.3,0.6-0.4
	c0.1,0.1,0.1,0.1,0.1,0.1c0.4,0.6,0.9,0.9,1.6,0.7c0.7-0.2,0.9-0.8,1-1.4c0.1-0.3,0.1-0.6,0.1-0.8c0-4.6,0-9.3,0-13.9
	c0-0.2,0-0.4,0-0.6c0.6,0,0.8-0.4,1.1-0.8C50.7,18.5,51.5,18.1,51.3,17.1z"/>
<path class="st17" d="M31.9,40.4c0.1,0.3-0.1,0.4-0.4,0.4c-1.3,0-2.6,0-4,0c-0.4,0-0.4-0.4-0.4-0.6c0.3,0,0.3-0.2,0.4-0.4
	c0.2-0.6-0.1-1.2,0.2-1.7c0.1,0.1,0.1,0.4,0.4,0.4c0.4,0,0.9-0.5,1-1c0.1-0.8,0.1-1.6,0.3-2.4c0.1-0.5-0.1-0.7-0.6-0.7
	c-0.4-0.6-1.2-0.9-1.6-1.7c-0.1-0.3-0.3-0.5-0.5-0.8c-0.1-0.1-0.3-0.2-0.4-0.1c-0.1,0.1-0.1,0.3,0,0.4c0.5,0.4,0.9,1.1,1.1,1.7
	c0.2,0.6,0.6,1.2,0.1,1.8c-0.3,0.3,0,0.6,0.4,0.6c-0.1,0.4-0.1,0.9-0.1,1.3c-0.5-0.1-0.6,0.4-0.9,0.6c-0.1-0.4-0.1-0.9-0.2-1.4
	c0.4-0.7,0.4-1.4,0.3-2.3c-0.1-0.5-0.3-0.9-0.9-1c-0.3-1.9-0.6-3.8-0.9-5.8c0.3,0,0.5-0.1,0.7-0.2c0.4,0,0.2-0.4,0.4-0.5
	c0.6,0.2,0.7,0.9,1.2,1c-0.3,0.6-0.6,1.2,0.4,1.7c0.9,0.6,1.6,1.6,1.3,2.9c0,0.1,0,0.1,0,0.2c0,0.2-0.1,0.5,0.1,0.6s0.5-0.1,0.7-0.3
	c0.9-0.9,1.9-1.8,3.4-1.6c-0.1,0.4-0.1,0.8-0.2,1.2c-0.6,0-1.1-0.1-1.6,0.1c-0.6,0.2-0.8,0.9-0.4,1.4s1,0.6,1.7,0.6
	c-0.1,0.4-0.1,0.9-0.2,1.2c-0.7,0.1-1.2,0.6-1.3,1.3c0,0.5,0.5,0.7,0.9,0.9c0,0.1,0,0.1-0.1,0.2c-0.7,0-1.4,0.1-1.9-0.6
	c-0.1-0.1-0.2-0.1-0.4-0.1c-0.1,0.1-0.1,0.3,0,0.4c0.4,0.4,0.3,0.6-0.1,1c-0.3,0.2-0.3,0.6-0.1,0.9c0.1,0.4,0.4,0.4,0.8,0.3
	C31,40.3,31.5,40.1,31.9,40.4z"/>
<path class="st18" d="M19.6,32.4c-0.1-0.8-0.1-1.7-0.1-2.4c0-1.4-0.1-2.9,0.1-4.4c0.4,0,0.9-0.1,1.4,0s1,0.1,0.9,0.8
	c-0.1,0.4,0.1,0.6,0.4,0.9c0.1,0.1,0.1,0.1,0.3,0.1c0,0.2,0,0.5,0,0.7c0,0.4-0.2,0.8,0.4,0.9c0,0.4,0,0.6,0,1c0,0.3-0.1,0.6,0.1,0.8
	c0.7,0.9-0.3,1.7-0.1,2.4c0,0-0.1,0.1-0.1,0.1c-0.5,0.1-1.1-0.2-1.6,0c-0.3,0.1-0.1-0.3-0.3-0.4C20.4,32.9,20.1,32.4,19.6,32.4z"/>
<path class="st19" d="M33.4,31.6c-1.5-0.2-2.4,0.6-3.4,1.6c-0.2,0.2-0.4,0.4-0.7,0.3c-0.3-0.1-0.1-0.4-0.1-0.6c0-0.1,0-0.1,0-0.2
	c0.3-1.3-0.4-2.3-1.3-2.9c-0.9-0.6-0.6-1.1-0.4-1.7c0.6,0.4,1.2,0.6,1.8,0.5c0.1,0.6,0.1,1.2,0.3,1.9c0.2-0.9,0.1-1.7,0.4-2.5
	c0.1,0,0.1,0.1,0.2,0.1c1.1,0.9,2.2,1.7,3.7,1.5C33.7,30.1,33.6,30.9,33.4,31.6z"/>
<path class="st20" d="M54.6,48.5c-0.9,0.1-0.9,0.1-1.1-0.7c-0.1-0.6-0.3-1.2-0.4-1.8c0,0.7,0,1.4,0,2.1c0,0.4-0.1,0.5-0.4,0.5
	c-1.2,0-0.9,0.1-0.9-0.9c0-1.6,0-3.2,0-4.8c0-0.4,0.1-0.6,0.6-0.6c0.9,0,0.9,0,1.2,0.9c0.1,0.5,0.3,1.1,0.4,1.6c0-0.6,0-1.4,0-2
	s0.4-0.4,0.7-0.4s0.6-0.1,0.6,0.4c-0.1,0.6,0,1.2-0.1,1.8c-0.2,0-0.2,0.1-0.2,0.3C54.7,46,54.3,47.3,54.6,48.5z"/>
<path class="st15" d="M34.7,26.9c0.1-1.1,0.1-2.1,0.1-3.2c0.3,0,0.6,0.1,0.9,0c0.4-0.1,0.5-0.1,0.3-0.6c-0.4-0.7-1.3-0.6-1.9-0.8
	c-0.3-0.1-0.6,0-0.9-0.2c-0.3-0.3-0.7-0.4-1.1-0.4c0-0.1,0.1-0.2,0.1-0.2c0.6-0.1,1.2-0.9,1.9-0.4c0.1,0.1,0.4,0.1,0.6,0
	c0.3-0.1,0.6,0,0.9,0.1c0.5,0.2,0.9,0.7,1.5,0.7c0.3,0.4,0.8,0.7,1.2,1c0,0.2-0.1,0.4,0.2,0.5l0,0c0,0.1,0,0.3-0.1,0.4
	c-0.5,0.1-0.4,0.4-0.4,0.8l0,0c-0.5,0.1-0.7,0.6-0.6,0.8c0.5,0.5,0.2,1.1,0.2,1.6c-0.2,0.1-0.4,0.3-0.6,0.3
	C36.2,27.2,35.4,27.1,34.7,26.9z"/>
<path class="st21" d="M39.7,32.3c0.1,1.9,0,4,0,5.9c-0.1,0.1-0.3,0.1-0.4,0.1c-1.1,0.4-2.4,0.1-3.1-0.7c-0.4-0.4-0.6-0.9-0.9-1.5
	c0-0.1,0-0.1,0-0.2c-0.2-0.6-0.1-0.8,0.6-0.6c0.4,0.1,1,0.2,1.2-0.5c0.1-0.2,0.4-0.3,0.6-0.2c-0.1,0.5-0.3,1-0.9,1
	c-0.9,0-1,0.4-0.6,1.1c0.4,0.9,0.9,1.2,1.9,0.9c0.9-0.2,0.9-0.2,0.9-1.2c0-0.5,0-1,0-1.6c0-0.2,0-0.4,0.1-0.6s0.2-0.4,0.1-0.6
	c-0.2-0.2-0.4,0.1-0.5,0.2c-0.3,0.2-0.4,0.8-0.9,0.6c0.1-0.4,0.3-0.7,0.6-1.1c0.3-0.3,0.4-0.6-0.1-0.9c-0.8-0.6-1.5-1.2-2.6-0.9
	c-0.4,0.1-0.7,0.1-1.1,0.1c0-0.5,0-1,0-1.5c0.4-0.1,0.3-0.6,0.7-0.6c0.7,0.4,1.4,0.4,2.2-0.1c0.2-0.1,0.4-0.3,0.6-0.3
	c0,0.2-0.1,0.3-0.3,0.4c-0.4,0.4-0.5,1-0.1,1.4C38.2,31.7,38.9,32,39.7,32.3z"/>
<path class="st22" d="M19.6,32.4c0.6-0.1,0.8,0.4,1.2,0.6c0.1,0.1,0.1,0.4,0.3,0.4c0.6-0.2,1.1,0.1,1.6,0c0.1,0,0.1-0.1,0.1-0.1
	c-0.1-0.8,0.9-1.6,0.1-2.4c-0.2-0.2-0.1-0.5-0.1-0.8c0.4,0.3,0.5,0.7,0.6,1.2c0.1,0.2,0,0.6,0.4,0.6c0,0.1,0,0.1,0,0.1
	c0,0.6,0.1,1.1,0.7,1.2c0,1.9,0,3.7,0,5.7c-0.3,0-0.2-0.3-0.4-0.4c-0.6-0.2-1.1-0.6-1.5-1c-0.4-0.4-0.4-0.5,0.2-0.6
	c0.6-0.2,0.7-0.5,0.3-1c-0.4-0.4-0.9-0.5-1.2-0.9c-0.6-0.8-1.5-1.2-2.3-1.7C19.5,32.9,19.5,32.7,19.6,32.4z"/>
<path class="st19" d="M25.6,44.5c-0.2,0.5-0.3,0.9-0.1,1.6c0.2,0.6,0.1,1.4,0.1,2.2c0,0.3-0.1,0.4-0.4,0.4c-1,0.1-1,0.1-1-0.9
	c0-0.4,0-0.9,0-1.4c0-0.2,0-0.6-0.4-0.6c-0.4,0-0.2,0.4-0.2,0.5c0,0.6,0,1.2,0,1.9c0,0.4-0.1,0.4-0.4,0.4c-0.9,0-0.9,0-0.9-0.9
	c0-1.6,0-3.2,0-4.7c0.3,0,0.5,0.1,0.7,0.4c0.1,0.2,0.4,0.4,0.6,0.4c0,0.1,0,0.4,0,0.5s-0.1,0.4,0.2,0.4c0.2,0,0.4-0.1,0.5-0.3
	c0.1-0.1,0-0.2,0.1-0.4C24.9,43.8,25.1,44.4,25.6,44.5z"/>
<path class="st20" d="M47.6,45.2c-0.1-0.6-0.1-1.2,0.1-1.9c0.1-0.7,0.7-1.2,1.6-1.2c1,0,1.6,0.3,1.7,1.1c0.2,1.4,0.1,2.8,0.1,4.2
	c-0.1,0.6-0.6,1-1.2,1.1c-0.5,0.1-1,0.1-1.5-0.2c0.1-0.1,0.1-0.3,0.1-0.4c0.4-0.3,0-0.9,0.5-1.1c0,0.3,0.2,0.4,0.4,0.4
	c0.2,0,0.3-0.2,0.3-0.4c0-1.1,0-2.1,0-3.2c0-0.2,0-0.4-0.3-0.5c-0.4,0-0.4,0.2-0.4,0.4c0,0.5,0,0.9-0.1,1.4
	C48.5,45.2,48.1,45.4,47.6,45.2z"/>
<path class="st23" d="M19.6,22c-0.1-1.5-0.1-3.1,0-4.6c0.1,0,0.1,0,0.1,0c0.9,0.5,1.7,0.8,2.7,0.1c0.1-0.1,0.4-0.1,0.4,0.1
	c0.1,0.4,0.4,0.4,0.7,0.3c0.4-0.1,0.4-0.4,0.4-0.8c0.4,0,0.8,0,1.2,0c0,0.1,0.1,0.1,0.1,0.2c0.1,0.2,0.1,0.4,0.1,0.6
	c-0.3,0-0.6,0-0.9,0c-0.6,0-0.7,0.1-0.5,0.7c-0.5,0.1-1.1,0.2-1.6,0.5c-0.1,0.1-0.4,0.2-0.2,0.5c0.1,0.2,0.4,0.1,0.6,0.1
	c0.4-0.2,0.8-0.4,1.3-0.4c-0.5,0.5-1.1,0.9-1.9,1.1c-0.4,0.1-0.5,0.1-0.3,0.5c-0.1,0.2-0.4,0.1-0.5,0.1c-0.1,0-0.4-0.1-0.4,0.1
	C20.7,21.8,20.1,21.9,19.6,22z"/>
<path class="st17" d="M38.2,22.9c-0.5-0.3-0.9-0.6-1.2-1c-0.1-0.2-0.3-0.5-0.5-0.6c-0.5-0.4-0.9-1-1.6-1.1c-0.1-0.4-0.4-0.2-0.6-0.2
	c-0.2,0-0.5,0-0.7,0c0-0.1,0-0.3-0.1-0.4c-0.2-0.4-0.1-0.6,0.4-0.6c0.2,0,0.5,0,0.6-0.4c0.1-0.1,0.2-0.1,0.4-0.1
	c0.2,0.3,0.4,0.6,0.6,0.1c0.1-0.1,0.1-0.2,0.3-0.3c0.4-0.1,0.6-0.6,0.6-0.9c0.2-0.1,0.5-0.1,0.7,0c0,0.1,0.1,0.2,0.1,0.4
	c-0.1,0.6,0.2,1,0.6,1.5c0.5,0.6,1.2,1,1.8,1.6c-0.1,0.2-0.4,0.4-0.4,0.7c-0.3,0-0.3,0.2-0.4,0.4C38.5,22.2,38.5,22.6,38.2,22.9z"/>
<path class="st15" d="M30,27.3c0.1-0.6,0.1-1.2,0.2-1.9c0.7-0.4,1.4-0.6,1.9-1.3c0.1-0.2,0.4-0.3,0.6-0.1c0.4,0.3,0.8,0.1,1.1-0.1
	c0.3-0.2,0.6-0.3,0.9-0.2C34.5,25,34.2,26.5,34,28c-0.8,0-1.5-0.3-2.1-0.8c-0.4-0.3-0.8-0.4-1.2-0.2C30.5,27.1,30.2,27.2,30,27.3z"
	/>
<path class="st20" d="M34.8,42.3c0.1,0,0.2,0,0.3,0c0.1,0.3,0.1,0.8,0.6,0.6c0,1.4,0,2.7,0,4c0,0.2-0.1,0.6,0.3,0.6s0.4-0.4,0.4-0.6
	c0-0.6,0-1.4,0-2c0.4,0.4,0.9,0.4,1.4,0.4c0,0.6,0,1.2,0,1.8c0,1.1-0.6,1.6-1.7,1.6c-1.1,0-1.7-0.5-1.7-1.6c0-1.3,0-2.5,0-3.8
	C34.7,43,34.7,42.7,34.8,42.3z"/>
<path class="st17" d="M37.7,34.5c-0.2,0-0.5,0-0.6,0.2c-0.2,0.7-0.8,0.6-1.2,0.5c-0.7-0.1-0.8,0.1-0.6,0.6c0,0.1,0,0.1,0,0.2
	c-0.3-0.1-0.4-0.4-0.7-0.2c0-1.4,0-2.7,0-4c0.4-0.1,0.8,0,1.1-0.1c1.1-0.4,1.8,0.3,2.6,0.9c0.4,0.3,0.4,0.6,0.1,0.9
	C38,33.7,37.9,34,37.7,34.5L37.7,34.5z"/>
<path class="st13" d="M34.8,23.7c-0.4,0-0.6,0-0.9,0.2c-0.3,0.3-0.7,0.4-1.1,0.1c-0.2-0.1-0.4-0.1-0.6,0.1c-0.5,0.6-1.2,0.9-1.9,1.3
	c0.2-1.2,0.4-2.4,0.6-3.7c0.4,0.3,0.8-0.1,1.2,0c0.4,0.1,0.8,0.1,1.1,0.4c0.3,0.2,0.6,0.1,0.9,0.2c0.6,0.2,1.4,0.1,1.9,0.8
	c0.3,0.4,0.1,0.5-0.3,0.6c-0.3,0-0.6,0-0.9,0c0-0.1,0-0.2,0.1-0.3C34.8,23.5,34.8,23.6,34.8,23.7z"/>
<path class="st15" d="M46.4,31.8c0,0.1,0,0.2,0,0.3c-0.4-0.1-0.4,0.2-0.6,0.4c-0.1,0.4-0.3,0.7-0.4,1.1s-0.4,0.4-0.6,0.2
	c-0.5-0.4-0.9-0.1-1.3,0.1C43.3,34,43.1,34,43,34.1c0.1-0.2,0.1-0.4,0.1-0.6s0.1-0.5-0.1-0.6s-0.4,0.1-0.6,0.3c-0.4,0.3-0.5,0.8-1,1
	c-0.1-1.2,0-2.3-0.1-3.5c0-0.3,0.1-0.4,0.4-0.4c0.5,0,1.1,0,1.6,0c0.2,0.9-0.4,1.4-0.8,2.2c0.3,0.1,0.4-0.1,0.4-0.1
	c0.4-0.5,1.2-0.7,1.7-0.5c0.1,0.1,0.1,0.1,0.1,0.2c0,0.3,0.1,0.5,0.4,0.4c0.2-0.1,0.1-0.4,0.1-0.6c0-0.5,0-0.9,0.6-0.6
	C46.2,31.4,46.2,31.7,46.4,31.8z"/>
<path class="st23" d="M19.6,33.2c0.8,0.5,1.7,0.9,2.3,1.7c0.3,0.4,0.9,0.5,1.2,0.9c0.4,0.5,0.4,0.8-0.3,1c-0.6,0.1-0.6,0.3-0.2,0.6
	c0.4,0.4,0.9,0.8,1.5,1c0.2,0.1,0.1,0.4,0.4,0.4c0,0.4,0,0.7,0,1.2c-0.3-0.1-0.3-0.3-0.4-0.5c-0.3-0.6-0.6-1.1-1.4-1
	c-0.1-0.1-0.3-0.3-0.4-0.4c-0.6-1.2-1.8-1.7-2.9-2.2C19.6,35,19.6,34.1,19.6,33.2z"/>
<path class="st21" d="M43.4,34c0.4-0.3,0.8-0.5,1.3-0.1c0.3,0.2,0.5,0.1,0.6-0.2s0.3-0.7,0.4-1.1c0.1-0.2,0.2-0.5,0.6-0.4
	c0,1.1,0.1,2.2,0,3.3c-0.3,0.1-0.5,0.4-0.6,0.7v0.1l-0.1,0.1c0,0-0.1,0-0.1,0.1l-0.1,0.1h-0.1c-0.5-0.1-0.7,0.5-1.2,0.5
	C44.1,37,44,37,43.8,37.1c-0.1-0.3,0.2-0.4,0.1-0.8c-0.6,0.6-0.5-0.1-0.7-0.4c-0.6-0.6-0.6-0.8,0-1.4C43.7,34.5,43.8,34.2,43.4,34z"
	/>
<path class="st21" d="M20,45.7c-0.3,0.1-0.2,0.3-0.2,0.5c0,0.6,0,1.3,0,1.9c0,0.4-0.1,0.5-0.4,0.5c-0.9,0-0.9,0-0.9-0.9
	c0-1.5,0-3,0-4.5c0-0.9,0-0.9,1-0.8c0,0.4-0.1,0.9,0.4,1.2c0.1,0.4-0.1,0.7,0.1,1.1C20,45,20,45.3,20,45.7z"/>
<path class="st19" d="M34.6,35.8c0.3-0.1,0.5,0.2,0.7,0.2c0.1,0.6,0.5,1.1,0.9,1.5c0.7,0.9,2,1.2,3.1,0.7c0.1-0.1,0.3-0.1,0.4-0.1
	c0,0.6,0,1.2,0,1.9c0.1,0.6-0.1,0.8-0.7,0.7c-0.1,0-0.2-0.1-0.4-0.1c-0.6-0.8-1.4-1.3-2.3-1.7c0-0.2-0.1-0.3-0.3-0.2
	c-0.1,0-0.2,0-0.3,0c-0.1-0.2-0.2-0.2-0.4-0.2c-0.1,0-0.2,0-0.4,0c0-0.2-0.2-0.2-0.4-0.2c0-0.1,0-0.2,0-0.4c0.5-0.2,0.5-0.9,0-1.4
	C34.6,36.3,34.6,36,34.6,35.8z"/>
<path class="st21" d="M24.9,25.8c-0.2-0.8-0.1-1.6-0.5-2.4c0.2,0.1,0.1,0.3,0.1,0.4c-0.1,0-0.2,0-0.4,0c-1-0.2-1-0.2-1.2,0.8
	c-0.1,0.3,0.2,0.7-0.2,0.9c-0.4,0.1-0.6,0.1-1,0.1c-0.1,0-0.2,0-0.4,0c-0.1-0.3-0.2-0.6-0.2-0.9c-0.1-0.4,0.1-0.6,0.4-0.5
	c0.9,0.3,1.1-0.1,1.1-0.9c0-0.1,0-0.1,0-0.1c0.3-0.1,0.2-0.7,0.7-0.6c0.5,0.7,0.5,0.7,1.2,0.2c0.1-0.1,0.4-0.1,0.5-0.1
	c0.2,0.8,0.8,0.4,1.3,0.4c0,0.1-0.1,0.2-0.2,0.3c-0.6,0.1-0.6,0.4-0.4,0.9c0.1,0.1,0.1,0.1,0.1,0.2c0.1,0.1,0.1,0.4-0.1,0.5
	c-0.2,0.1-0.3-0.1-0.4-0.2c-0.1-0.1-0.1-0.1-0.3-0.1c-0.1,0.1,0,0.1,0,0.3c0.3,0.7,0.3,0.7,0.9,0.3c0.2-0.1,0.4-0.5,0.6,0
	c0,0.3-0.1,0.6-0.2,0.9C25.8,25.6,25.3,26,24.9,25.8z"/>
<path class="st13" d="M28.6,23.1c0.4,1.5,0.5,3,0.7,4.5c-0.4,0-0.7,0.1-1.1,0c-0.7-0.1-1.4-0.5-1.6-1.1c-0.2-0.5,0-1.2,0.6-1.6
	c0.3-0.2,0.2-0.4,0.2-0.7c0.1-0.2,0.3-0.4,0.4-0.6C28.2,23.6,28.2,23.2,28.6,23.1z"/>
<path class="st22" d="M23.1,22.4c-0.5-0.1-0.4,0.5-0.7,0.6c-0.5,0.4-1.2,0.6-1.7,0.4c-0.4-0.1-0.7-0.1-1.1,0.1
	c-0.1-0.4-0.1-0.9,0-1.4c0.5-0.1,1.1-0.1,1.3-0.8c0.1-0.1,0.3-0.1,0.4-0.1c-0.1,0.4-0.2,0.7-0.4,1.1c-0.1,0.2-0.3,0.5,0,0.7
	c0.2,0.1,0.5,0.1,0.7-0.1c0.7-0.5,1.4-1,2.2-1.6c0.6-0.4,0.6-0.5,0-1c0.1-0.3,0.5-0.3,0.8-0.4c0.4,0.1,0.6-0.1,0.8-0.4
	c0.1,0,0.4,0,0.5,0c-0.1,0.5,0.5,0.3,0.6,0.5c-0.4,0.4-0.7,0.9-1.2,1.2c-0.3,0.1-0.4,0.4-0.4,0.8C24.3,22.3,23.8,22.4,23.1,22.4z"/>
<path class="st10" d="M39.8,46c0,0.4,0,0.6,0,1c0,0.2,0.1,0.4,0.4,0.4c0.2,0,0.3-0.2,0.3-0.4c0-0.3,0-0.6,0-0.8
	c0-0.3,0.1-0.4,0.4-0.4c1-0.1,1-0.1,1,0.9c0,1.2-0.5,1.8-1.6,1.9c-1.3,0.1-1.9-0.6-1.9-1.9c0.1,0,0.2-0.1,0.2-0.1
	C38.8,45.9,39.4,46,39.8,46z"/>
<path class="st20" d="M46.9,42.9c0,1.7,0,3.5,0,5.2c0,0.5-0.3,0.5-0.6,0.5c-0.3-0.1-0.8,0.3-0.8-0.4c0.1-1.6,0-3.1,0-4.7
	c0.1,0,0.1-0.2,0.2-0.1c0.4,0.6,0.5,0.3,0.6-0.1C46.5,42.9,46.6,42.9,46.9,42.9z"/>
<path class="st20" d="M45.1,42.9c0.1,0.4,0.1,0.6-0.4,0.6s-0.4,0.2-0.4,0.5c0,1.4,0,2.7,0,4c0,0.5-0.2,0.6-0.6,0.5
	c-0.4-0.1-0.9,0.2-0.8-0.5c0.1-1.4,0-2.7,0.1-4.2h0.1h0.1c0.6-0.1,0.9-0.4,1-0.9c0.1,0,0.1,0,0.1,0C44.4,42.9,44.8,42.9,45.1,42.9z"
	/>
<path class="st13" d="M29.4,42.9c0.3,0.3,0.3,0.7,0.3,1.2c0,1,0,2,0,3.1c0,0.9-0.2,1.2-0.9,1.5c-0.8,0.3-1.5,0.1-2.1-0.4
	c0,0,0.1,0,0.1-0.1c0.4,0.1,0.7,0.1,1.1,0.1c0.5-0.1,0.7-0.3,0.4-0.8c0.3-1.2,0-2.4,0.1-3.6C28.8,43.5,29.1,43.2,29.4,42.9z"/>
<path class="st18" d="M24.9,22.2c0-0.4,0.1-0.6,0.4-0.8c0.5-0.3,0.9-0.9,1.2-1.2c0.2,0,0.4-0.1,0.5-0.1c0.4,0,0.7,0,1.1,0
	c0.1,0.6,0.2,1.2,0.3,1.8c-0.8,0.2-1.5,0.8-2.2,1.2c-0.5,0.1-1.1,0.4-1.3-0.4C24.9,22.4,24.9,22.2,24.9,22.2z"/>
<path class="st19" d="M39.4,20.7c-0.6-0.6-1.2-0.9-1.8-1.6c-0.4-0.5-0.6-0.9-0.6-1.5c0-0.1,0-0.2-0.1-0.4c0.8,0,1.6,0,2.4,0
	c0.2,0,0.3,0.1,0.3,0.3c0,1,0,2.1-0.1,3.1C39.5,20.7,39.5,20.7,39.4,20.7z"/>
<path class="st17" d="M30,27.3c0.3-0.1,0.5-0.1,0.8-0.2c0.4-0.1,0.9-0.1,1.2,0.2c0.6,0.5,1.3,0.8,2.1,0.8c-0.1,0.4-0.1,0.9-0.2,1.4
	c-1.5,0.2-2.6-0.7-3.7-1.5c-0.1-0.1-0.1-0.1-0.2-0.1C30,27.6,30,27.5,30,27.3z"/>
<path class="st17" d="M26.2,22.9c0.7-0.4,1.4-0.9,2.2-1.2c0.1,0.4,0.2,0.7,0.1,1.2c-0.4,0.1-0.6,0.4-0.7,0.8
	c-0.1,0.2-0.3,0.4-0.4,0.6c-0.5,0-0.4,0.6-0.9,0.8c-0.2-0.5-0.5-0.1-0.6,0c-0.6,0.4-0.6,0.4-0.9-0.3c-0.1-0.1-0.1-0.1,0-0.3
	c0.1-0.1,0.2-0.1,0.3,0.1c0.1,0.1,0.2,0.4,0.4,0.2c0.1-0.1,0.1-0.3,0.1-0.5c0-0.1-0.1-0.1-0.1-0.2c-0.2-0.4-0.1-0.8,0.4-0.9
	C26.1,23.1,26.2,23,26.2,22.9z"/>
<path class="st17" d="M43.4,34c0.4,0.3,0.3,0.5,0,0.8c-0.6,0.6-0.6,0.7,0,1.4c0.2,0.2,0.1,0.9,0.7,0.4c0.1,0.4-0.3,0.5-0.1,0.8
	c-0.6,0.4-1.3,0.4-2,0.7c0.7-0.8,0.7-0.8-0.3-1c-0.1,0-0.1,0-0.2,0c-0.1-0.5-0.1-1-0.1-1.5c0.1,0,0.3-0.1,0.3-0.2
	c0.4-0.4,1-0.6,1.3-1.2C43,34,43.3,34,43.4,34z"/>
<path class="st19" d="M19.8,43.5c-0.4-0.3-0.4-0.7-0.4-1.2c0.1,0,0.2,0,0.4,0c1.7,0,2.1,0.4,2,2.1c-0.1,1.1-0.5,1.4-1.8,1.4
	c0.1-0.4,0-0.8-0.1-1.2c0.4,0,0.6-0.3,0.6-0.7C20.4,43.4,20,43.4,19.8,43.5z"/>
<path class="st23" d="M39.7,32.3c-0.7-0.3-1.4-0.6-1.9-1.2c-0.4-0.4-0.4-1.1,0.1-1.4c0.1-0.1,0.3-0.2,0.3-0.4
	c0.5-0.1,0.9-0.6,1.5-0.5C39.7,30,39.7,31.1,39.7,32.3z"/>
<path class="st19" d="M41.5,37c0.1,0,0.1,0,0.2,0c0.9,0.2,0.9,0.2,0.3,1c0.7-0.3,1.4-0.3,1.9-0.8c0.1-0.1,0.2-0.1,0.4-0.2
	c-0.2,0.6-0.2,1.2-0.2,1.9c0,0.4-0.1,0.9-0.3,1.4C42.5,39.5,41.8,38.4,41.5,37z"/>
<path class="st20" d="M33.7,44c0.1,1,0.1,2.1,0,3.1s-0.4,1.4-1.5,1.4c-0.3,0-0.6,0-0.9,0c-0.1-0.4,0.1-0.9,0.4-1.2
	c0.3,0,0.5,0,0.7-0.2c0.6,0,0.6-0.5,0.7-0.9c0.1-0.1,0.1-0.4,0.1-0.5C33.1,45.1,33.3,44.5,33.7,44z"/>
<path class="st19" d="M31.9,40.4c-0.5-0.2-0.9-0.1-1.4,0.1c-0.4,0.1-0.6,0-0.8-0.3c-0.1-0.3-0.2-0.6,0.1-0.9c0.4-0.3,0.6-0.6,0.1-1
	c-0.1-0.1-0.1-0.3,0-0.4c0.1-0.1,0.3-0.1,0.4,0.1c0.5,0.7,1.2,0.6,1.9,0.6C32.2,39.1,32.1,39.7,31.9,40.4z"/>
<path class="st22" d="M21.1,25.5c0.1,0,0.2,0,0.4,0c0.4,0,0.7,0,1-0.1c0.4-0.1,0.1-0.6,0.2-0.9c0.2-0.9,0.2-0.9,1.2-0.8
	c0.1,0,0.2,0,0.4,0c0,0.1,0,0.1,0,0.2c-0.2,0.1-0.6-0.1-0.6,0.1c0.1,0.4,0,1,0.6,1.2c0,0.1,0,0.4,0,0.5c-0.3,0-0.4-0.2-0.6-0.4
	c-0.2-0.1-0.4-0.5-0.7-0.1c-0.3,0.3-0.2,0.5,0,0.7c0.1,0.1,0.3,0.4,0.3,0.6c-0.1-0.1-0.2-0.1-0.3-0.1c-0.4-0.4-0.7-0.3-0.9,0.3
	c-0.1,0.1,0,0.4,0,0.5c-0.3-0.2-0.5-0.4-0.4-0.9c0.1-0.6-0.5-0.7-0.9-0.8c-0.4-0.1-0.9,0-1.4,0c-0.1-0.2-0.1-0.5,0-0.7
	C20.2,24.9,20.5,25.5,21.1,25.5z"/>
<path class="st23" d="M23.9,31.8c-0.4-0.1-0.3-0.4-0.4-0.6c-0.1-0.4-0.2-0.9-0.6-1.2c0-0.4,0-0.6,0-1s0.1-0.7-0.4-0.9
	c0-0.2,0-0.5,0-0.7c0.1,0,0.1,0,0.3,0c0.5,0.4,1.2,0.4,1.8,0.5c0.1,0.5,0.1,1,0.1,1.5c-0.7,0.4-1,0.9-0.9,1.6
	C23.8,31.3,23.8,31.6,23.9,31.8z"/>
<path class="st17" d="M34.7,26.9c0.7,0.2,1.4,0.3,2.2,0.3c0.3,0,0.4-0.1,0.6-0.3c0.3,0.3,0.4,0.6,0.4,1c0,0.2-0.1,0.4,0.2,0.5
	c0,0.1,0,0.1,0,0.1c-0.3,0-0.6,0-0.9,0c-0.1,0-0.3,0-0.4,0c-0.1-0.3-0.3-0.2-0.5-0.2c-0.6,0-1.2,0.1-1.8,0.1
	C34.7,27.9,34.7,27.4,34.7,26.9z"/>
<path class="st13" d="M51.3,17.1c0.1,0.9-0.6,1.4-1.1,1.9c-0.3,0.4-0.5,0.8-1.1,0.8c0-0.8,0-1.5,0-2.3c0-0.4,0.1-0.4,0.5-0.4
	C50.2,17.1,50.7,17.1,51.3,17.1z"/>
<path class="st16" d="M30.4,42.7c-0.1-0.2-0.1-0.4,0.2-0.4c0.6,0,1.1-0.1,1.7,0.1c0,0.1,0,0.4,0,0.5c-0.1,0.2-0.1,0.4-0.1,0.6
	c-0.4-0.1-0.6,0.1-0.5,0.5c0,0.8,0,1.5,0,2.3c-0.1-0.1-0.4-0.2-0.4-0.5c0.1-0.6-0.3-0.9-0.9-0.8c-0.1-0.2-0.1-0.5,0-0.7
	c0.3,0.1,0.6,0.2,0.6-0.2C31,43.5,30.9,43,30.4,42.7z"/>
<path class="st17" d="M23.6,40.8c-1.2,0.1-2.5,0.1-3.7,0c-0.6,0-0.3-0.5-0.3-0.8c0.6-0.1,1.2,0.2,1.8,0.3c0.4,0,0.9,0.3,1-0.1
	c0.1-0.4-0.5-0.4-0.9-0.5c0.1-0.2,0.5-0.1,0.5-0.5c0.3-0.1,0.6-0.4,0.9-0.3l0,0C23.1,39.5,23.6,40,23.6,40.8z"/>
<path class="st13" d="M45.9,31.4c-0.6-0.2-0.7,0.1-0.6,0.6c0,0.2,0.1,0.5-0.1,0.6c-0.3,0.1-0.4-0.1-0.4-0.4c0-0.1-0.1-0.2-0.1-0.2
	c-0.6-0.2-1.2,0-1.7,0.5c-0.1,0.1-0.1,0.2-0.4,0.1c0.3-0.7,1-1.3,0.8-2.2c0.6,0,1.2,0,1.8,0c0,0.2,0.2,0.4,0.4,0.4
	C45.6,31,45.9,31.1,45.9,31.4z"/>
<path class="st23" d="M32.9,34.8c-0.6,0-1.2,0-1.7-0.6c-0.4-0.5-0.3-1.2,0.4-1.4c0.5-0.1,1.1-0.1,1.6-0.1
	C33.2,33.4,33.1,34.1,32.9,34.8z"/>
<path class="st21" d="M32,21.7c-0.4-0.1-0.8,0.3-1.2,0C30.8,21.4,31,21.2,31,21c1.2,0.1,2.2-0.2,3.2-0.6c0.3,0.1,0.4-0.3,0.6-0.2
	c0.7,0.1,1.2,0.6,1.6,1.1c0.2,0.2,0.4,0.4,0.5,0.6c-0.6,0-1-0.5-1.5-0.7c-0.3-0.1-0.5-0.2-0.9-0.1c-0.1,0.1-0.4,0.1-0.6,0
	c-0.8-0.4-1.3,0.3-1.9,0.4C32.1,21.5,32.1,21.7,32,21.7z"/>
<path class="st14" d="M36.4,39c0.9,0.5,1.7,0.9,2.3,1.7c0,0-0.1,0.1,0,0.1c-0.8,0-1.5,0-2.3,0v-0.1c0.1-0.4-0.1-0.5-0.4-0.7
	c-0.5-0.4-0.8-0.9-0.9-1.6c0.1,0,0.2,0,0.4,0c0.1,0.3,0.2,0.3,0.4,0.2c0.1,0,0.2,0,0.3,0C36.1,38.9,36.2,39,36.4,39z"/>
<path class="st14" d="M47.6,45.2c0.4,0.1,0.9-0.1,1.3,0c0.1,0.6,0.1,1.2,0,1.7c-0.5,0.2-0.1,0.8-0.5,1.1c-0.1,0.1-0.1,0.2-0.1,0.4
	c-0.4-0.3-0.6-0.7-0.7-1.2C47.6,46.5,47.6,45.9,47.6,45.2z"/>
<path class="st22" d="M25.4,18c-0.1-0.2-0.1-0.4-0.1-0.6c0-0.1,0-0.1,0-0.2c0.1,0,0.4,0,0.5,0c0.1,0.3,0.6,0.4,0.6,0.8
	c-0.4,0.1-0.6,0.3-0.6,0.6s0.4,0.2,0.6,0.3c0.1,0,0.1,0.1,0.2,0.1c-0.9,0.1-1.7,0.3-2.6,0.4c-0.4,0.1-0.9,0.2-1.3,0.4
	c-0.2,0.1-0.4,0.1-0.6-0.1c-0.2-0.3,0.1-0.4,0.2-0.5c0.5-0.3,1.1-0.4,1.6-0.5c0.5,0.1,0.9-0.2,1.4-0.3C25.8,18.3,25.6,18.1,25.4,18z
	"/>
<path class="st13" d="M30.5,45c0.6-0.1,0.9,0.1,0.9,0.8c0,0.2,0.1,0.4,0.4,0.5c0,0.4,0,0.7,0,1c-0.7,0.1-1,0.4-1.2,1.3
	c-0.1,0-0.1-0.1-0.1-0.2C30.4,47.3,30.3,46.1,30.5,45z"/>
<path class="st23" d="M21.1,25.5c-0.6,0-0.9-0.6-1.5-0.6c0-0.1,0-0.4,0-0.5c0.2-0.1,0.6,0.1,0.6-0.2c0-0.3-0.2-0.4-0.6-0.4h-0.1
	c0-0.1,0-0.2,0-0.4c0.4-0.1,0.6-0.2,1.1-0.1c0.6,0.2,1.2,0,1.7-0.4c0,0.1,0,0.1,0,0.1c0,0.7-0.1,1.2-1.1,0.9
	c-0.4-0.1-0.5,0.2-0.4,0.5C21,24.9,21,25.2,21.1,25.5z"/>
<path class="st21" d="M22.9,38.8c-0.4-0.1-0.6,0.2-0.9,0.3c0-0.4,0-0.8-0.2-1c-0.6-0.6-1.3-1.2-2.2-1.5c-0.1-0.2-0.1-0.5,0-0.7
	c1.2,0.4,2.3,1,2.9,2.2c0.1,0.1,0.2,0.3,0.4,0.4C22.9,38.6,22.9,38.7,22.9,38.8z"/>
<path class="st18" d="M31.4,18.4c0.1-1.2,0.1-1.2,1.2-1.2c0.7,0,1.4,0,2.1,0c-0.4,0.7-1,1.2-1.9,1.2C32.4,18.4,31.9,18.4,31.4,18.4z
	"/>
<path class="st22" d="M19.6,39.5c0-0.8,0-1.6,0-2.4c0.7,0.1,1.2,0.6,1.5,1.3c0.2,0.6-0.1,1.1-0.8,1.1C20,39.5,19.8,39.5,19.6,39.5z"
	/>
<path class="st18" d="M36.5,44c0-0.3,0-0.6,0-0.9c0-0.8,0.3-1,1.1-0.9c0.2,0.1,0.3,0.1,0.2,0.4c0,0.6,0,1.1,0,1.7
	C37.4,44.4,36.9,44.7,36.5,44z"/>
<path class="st23" d="M19.6,39.5c0.2,0,0.4,0,0.7,0c0.6,0,1.1-0.5,0.8-1.1c-0.3-0.6-0.7-1.2-1.5-1.3c0-0.1,0-0.4,0-0.5
	c0.9,0.3,1.5,0.9,2.2,1.5c0.3,0.2,0.3,0.6,0.2,1c0,0.4-0.4,0.3-0.5,0.5c-0.2,0.3-0.4,0.4-0.8,0.3c-0.4-0.1-0.7-0.2-1.1-0.1
	C19.5,39.6,19.5,39.6,19.6,39.5z"/>
<path class="st18" d="M38.4,23.7c0.1-0.1,0.1-0.2,0.1-0.4c0.4-0.2,0.6-0.8,1.2-0.8c0.1,0.6,0.1,1.4,0,2c-0.2,0-0.4,0.1-0.6,0.3
	c-0.9,0.5-0.9,0.5-0.9-0.5C38.3,24.2,38.3,24,38.4,23.7z"/>
<path class="st15" d="M40.5,42.3c0.9,0.1,1.3,0.4,1.4,1.4c-0.4-0.5-0.9-0.1-1.4-0.1c-0.4-0.3-0.6-0.1-0.6,0.4
	c-0.6,0.3-0.7,0.9-1.4,1.2c0-0.3,0-0.5,0-0.8C39.5,43.9,39.8,42.9,40.5,42.3z"/>
<path class="st13" d="M43.9,40.2c0.2-0.4,0.3-0.9,0.3-1.4c0-0.6,0-1.3,0.1-1.9c0.4-0.1,0.7-0.6,1.2-0.5c0.3,0.4-0.1,0.8-0.3,1.1
	c-0.5,0.7-0.6,1.5-0.6,2.3c0,0.2,0,0.4,0,0.7C44.3,40.5,44.1,40.4,43.9,40.2z"/>
<path class="st22" d="M23.9,17.1c0,0.3,0,0.6-0.4,0.8c-0.4,0.1-0.6,0.1-0.7-0.3c-0.1-0.1-0.3-0.1-0.4-0.1c-0.9,0.6-1.8,0.3-2.7-0.1
	c0,0-0.1,0-0.1,0c-0.1-0.3,0.1-0.2,0.3-0.2C21.2,17.1,22.6,17.1,23.9,17.1z"/>
<path class="st17" d="M24.1,19.4c0.9-0.1,1.7-0.3,2.6-0.4c0.4,0,0.9,0,1.2,0c0,0.1,0,0.1,0,0.2c-0.7,0-1.4,0-2,0.4
	c-0.1,0-0.4,0-0.5,0c-0.3,0-0.6-0.1-0.8,0.4C24.3,20,24,20,23.8,20.3c-0.1,0-0.2,0.1-0.4,0.1s-0.2,0-0.3,0.1
	c-0.4,0.1-0.9,0.4-1.4,0.5c-0.2-0.4,0-0.4,0.3-0.5C22.9,20.4,23.5,19.9,24.1,19.4z"/>
<path class="st17" d="M28.3,47.3c0.3,0.5,0.1,0.7-0.4,0.8c-0.4,0-0.7,0.1-1.1-0.1c0-0.3,0.5,0,0.4-0.4c-0.1-0.2,0-0.5-0.3-0.6
	c-0.4-0.1-0.2,0.4-0.4,0.5c-0.3-0.9-0.1-1.7-0.1-2.5c0.1-0.1,0.1-0.1,0.1-0.1c0.3,0,0.2,0.3,0.4,0.4c-0.1,0.8,0.3,1.4,0.9,1.9
	C27.8,47.6,28.1,47.4,28.3,47.3z"/>
<path class="st15" d="M26.5,25c0.4-0.1,0.4-0.8,0.9-0.8c0,0.3,0.1,0.5-0.2,0.7c-0.5,0.4-0.7,1.1-0.6,1.6c0.2,0.6,0.9,1,1.6,1.1
	c0.4,0.1,0.7,0,1.1,0c0,0.3,0.1,0.5,0.1,0.8c-0.6,0-1.2-0.1-1.8-0.5c-0.6-0.1-0.7-0.9-1.2-1c0-0.2,0-0.4,0-0.6
	c0.1-0.1-0.1-0.2,0-0.4C26.4,25.6,26.5,25.3,26.5,25z"/>
<path class="st23" d="M39.7,25.4c0.1,0.4,0.1,0.6,0,1c-0.3,0.6-0.4,1.3-0.4,2c-0.3,0-0.5,0-0.8,0c-0.1-0.8-0.4-1.6-0.5-2.4
	c0.3,0,0.2,0.2,0.3,0.4c0.1,0.2,0.1,0.5,0.4,0.4c0.3-0.1,0.2-0.3,0.3-0.5C39.1,26,39.2,25.5,39.7,25.4z"/>
<path class="st13" d="M26.8,45.4c-0.1-0.1-0.1-0.4-0.4-0.4c-0.1,0-0.1,0-0.1,0c0-0.1,0-0.4,0-0.5c0.3-0.3,0.7-0.5,0.7-1
	c0.2-0.4,0.4-0.8,0.5-1.2c0.4,0,0.7-0.1,1.1,0.1c-0.1,0.2-0.3,0.4-0.6,0.4c-0.3,0-0.5,0.1-0.4,0.4c0,0.2-0.1,0.4-0.2,0.5
	c-0.2,0.4-0.1,0.4,0.3,0.4c0.1,0.5,0.1,0.9,0,1.4C27.3,45.5,27.1,45.4,26.8,45.4z"/>
<path class="st21" d="M34.3,18.5c-0.1,0.4-0.4,0.4-0.6,0.4c-0.5,0-0.6,0.2-0.4,0.6c0.1,0.1,0.1,0.3,0.1,0.4
	c-0.1,0.1-0.4,0.1-0.5,0.1c0-0.2-0.1-0.4-0.4-0.4c-0.4-0.1-0.9-0.1-1.4-0.1c0.1-0.3,0.1-0.6,0.1-0.9C32.3,18.6,33.3,18.7,34.3,18.5z
	"/>
<path class="st20" d="M38.5,45c0.6-0.2,0.8-0.9,1.4-1.2c0,0.7,0,1.4,0,2.2c-0.5,0-1-0.1-1.1,0.6c0,0.1-0.1,0.1-0.2,0.1
	C38.5,46.2,38.5,45.6,38.5,45z"/>
<path class="st18" d="M33,20c0.1-0.1,0.4,0,0.5-0.1c0.2,0,0.5,0,0.7,0c0,0.1,0,0.3,0,0.4c-1,0.4-2.1,0.7-3.2,0.6
	c0.1-0.3,0.1-0.5,0.1-0.8C31.7,20.2,32.3,20.4,33,20z"/>
<path class="st21" d="M23.9,31.8c-0.1-0.3-0.1-0.5-0.1-0.8c-0.1-0.7,0.1-1.2,0.9-1.6c0,1.1,0,2.2,0,3.2C24.2,32.6,24.3,32,23.9,31.8
	C23.9,31.9,23.9,31.9,23.9,31.8z"/>
<path class="st22" d="M39.7,25.4c-0.4,0.1-0.6,0.6-0.6,0.9c-0.1,0.2,0,0.5-0.3,0.5c-0.3,0.1-0.3-0.3-0.4-0.4
	C38.2,26.3,38.2,26,38,26c0-0.5,0-1,0-1.5l0,0c0.1-0.1,0.1-0.1,0.3-0.1c0,1,0,1,0.9,0.5c0.1-0.1,0.3-0.3,0.6-0.3
	C39.7,24.9,39.7,25.2,39.7,25.4z"/>
<path class="st19" d="M42.9,34.1c-0.2,0.6-0.9,0.7-1.3,1.2c-0.1,0-0.2,0-0.3,0c-0.1-0.4-0.1-0.6,0-1c0.4-0.2,0.6-0.7,1-1
	c0.1-0.1,0.4-0.4,0.6-0.3c0.2,0.1,0.1,0.4,0.1,0.6C43,33.7,42.9,33.9,42.9,34.1z"/>
<path class="st19" d="M34.7,28.4c0.6-0.1,1.2-0.1,1.8-0.1c0.2,0,0.4-0.1,0.5,0.2c0,0.1,0,0.1,0,0.1c-0.3,0.1-0.6,0.3-0.9,0.4
	c-0.4,0.1-0.6,0.2-0.8,0.6c-0.4,0-0.4,0.6-0.7,0.6C34.6,29.6,34.6,29.1,34.7,28.4z"/>
<path class="st18" d="M23.3,26.7c0-0.2-0.1-0.4-0.3-0.6c-0.2-0.2-0.3-0.4,0-0.7c0.4-0.4,0.5,0,0.7,0.1s0.4,0.4,0.6,0.4
	c0.1,0.4,0.1,0.9,0,1.4c-0.2,0-0.4,0-0.6-0.1C23.6,27,23.4,26.9,23.3,26.7z"/>
<path class="st21" d="M23.6,43.6c-0.3,0-0.4-0.1-0.6-0.4c-0.2-0.2-0.4-0.3-0.7-0.4c-0.1-0.5,0.1-0.7,0.6-0.6
	c0.4,0.1,0.9,0.1,1.2,0.1c0,0.4,0,0.6,0.2,0.9c0.1,0.1,0.2,0.3,0,0.4C24.1,43.4,23.8,43.4,23.6,43.6z"/>
<path class="st15" d="M24.4,43.7c0.2-0.1,0.1-0.2,0-0.4c-0.2-0.3-0.2-0.6-0.2-0.9c1.1-0.1,1.5,0.4,1.5,1.4c0,0.2,0,0.5-0.1,0.7
	c-0.4-0.1-0.6-0.7-1.2-0.6C24.4,43.8,24.4,43.7,24.4,43.7z"/>
<path class="st15" d="M32.2,43.4c0.1-0.2,0.1-0.4,0.1-0.6c0.3,0,0.4-0.3,0.6-0.4c0.7,0.3,0.8,0.9,0.7,1.5c-0.4,0.5-0.6,1.1-0.5,1.7
	c0,0.1,0.1,0.4-0.1,0.5c0-0.6,0-1.3-0.3-1.9C33.1,43.2,32.9,43.3,32.2,43.4C32.3,43.5,32.2,43.5,32.2,43.4z"/>
<path class="st15" d="M35.4,29.6c0.1-0.4,0.4-0.5,0.8-0.6c0,0.4,0.2,0.4,0.5,0.4c0.5-0.1,1-0.2,1.6-0.4c0.3-0.1,0.2-0.3,0.1-0.5
	c0-0.1,0-0.1,0-0.1c0.1,0,0.1,0,0.3,0c0.3,0,0.5,0,0.8,0c0.1,0,0.3,0,0.4,0c0.1,0.1,0.1,0.3,0,0.4c-0.6-0.1-1,0.4-1.5,0.5
	c-0.2,0-0.4,0.1-0.6,0.3C36.8,30,36.1,30.1,35.4,29.6z"/>
<path class="st18" d="M40.5,42.3c-0.6,0.6-1,1.7-1.9,2C38.4,42.7,39,42.1,40.5,42.3z"/>
<path class="st19" d="M54.6,48.5c-0.3-1.3,0.1-2.5,0.3-3.7c0-0.1,0.1-0.3,0.2-0.3c0,1.2,0,2.4,0,3.7C55.1,48.6,54.9,48.6,54.6,48.5z
	"/>
<path class="st23" d="M26.1,33.4c0.5,0.1,0.7,0.5,0.9,1c0.2,0.8,0.2,1.6-0.3,2.3C26.4,35.6,26.2,34.5,26.1,33.4z"/>
<path class="st15" d="M44.1,42.9c-0.1,0-0.1,0-0.1,0c-0.6,0-0.7,0.6-1,0.9h-0.1h-0.1c-0.1-0.2-0.1-0.4-0.4-0.4
	C42,43.6,42,43.3,42,42.9c0.5,0,0.9-0.1,0.9-0.6c0.5,0,1,0,1.5-0.1c0.4,0,0.5,0.1,0.4,0.4C44.8,42.8,44.3,42.5,44.1,42.9z"/>
<path class="st22" d="M26.3,25.9c-0.1,0.1,0.1,0.2,0,0.4c-0.6,0.2-0.3,0.8-0.4,1.2c-0.2,0.2-0.5,0.2-0.7,0.2
	c-0.1-0.6-0.2-1.3-0.4-1.9C25.3,26,25.8,25.6,26.3,25.9z"/>
<path class="st20" d="M40.5,43.5c0.4,0,0.9-0.4,1.4,0.1c0,0.1,0,0.1,0,0.2c0,0.8-0.4,1.1-1.2,0.9c-0.2-0.1-0.2-0.2-0.2-0.4
	C40.5,44.1,40.5,43.8,40.5,43.5z"/>
<path class="st15" d="M32.3,38.2c-0.4-0.1-0.9-0.4-0.9-0.9c0-0.7,0.6-1.2,1.3-1.3C32.5,36.8,32.4,37.5,32.3,38.2z"/>
<path class="st18" d="M27.9,19c-0.4,0-0.9,0-1.2,0c-0.1-0.1-0.1-0.1-0.2-0.1c-0.2-0.1-0.6,0.1-0.6-0.3c0-0.3,0.2-0.6,0.6-0.6
	c0.2,0.1,0.5,0.1,0.7,0.1c0.2,0,0.4-0.2,0.6-0.3C27.8,18.2,27.9,18.6,27.9,19z"/>
<path class="st16" d="M27.6,44.1c-0.4,0-0.5-0.1-0.3-0.4c0.1-0.1,0.2-0.3,0.2-0.5c0-0.3,0.1-0.4,0.4-0.4c0.3,0,0.4-0.2,0.6-0.4
	c0.4,0,0.6,0.1,0.8,0.5c-0.3,0.4-0.6,0.7-1,0.9c-0.1-0.1-0.1-0.4-0.4-0.4c-0.3,0.1-0.3,0.3-0.3,0.5C27.7,43.9,27.6,44,27.6,44.1z"/>
<path class="st22" d="M39.7,22.7c-0.6,0-0.7,0.6-1.2,0.8l0,0c0.1-0.6,0.4-1.3,0.5-2c-0.1-0.4,0.3-0.5,0.4-0.7c0.1,0,0.1,0,0.3,0
	C39.7,21.3,39.7,21.9,39.7,22.7z"/>
<path class="st22" d="M34.3,18.5c-1,0.2-2,0.1-3,0.1c0-0.1,0-0.2,0.1-0.3c0.5,0,0.9,0,1.4,0c0.9,0.1,1.4-0.4,1.9-1.2
	c0.1,0,0.4,0,0.5,0c-0.1,0.4-0.4,0.8-0.5,1.2C34.6,18.4,34.5,18.5,34.3,18.5z"/>
<path class="st19" d="M27.8,38c-0.3,0.6,0,1.2-0.2,1.7c-0.1,0.2-0.1,0.4-0.4,0.4c-0.1-0.6-0.2-1.3-0.3-2c0.3-0.2,0.4-0.7,0.9-0.6
	C27.8,37.6,27.8,37.8,27.8,38z"/>
<path class="st15" d="M46.9,42.9c-0.3,0-0.4,0.1-0.5,0.4c-0.1,0.4-0.3,0.7-0.6,0.1c-0.1-0.1-0.1,0.1-0.2,0.1c0-0.1,0-0.2,0-0.4
	c0-0.9,0-0.8,0.9-0.9C46.9,42.2,47,42.4,46.9,42.9z"/>
<path class="st22" d="M22.9,38.8c0-0.1,0-0.2,0-0.4c0.7-0.1,1.1,0.4,1.4,1c0.1,0.2,0.1,0.4,0.4,0.5c0.1,0.8,0.1,0.8-0.4,0.8
	C24.1,39.8,23.6,39.3,22.9,38.8L22.9,38.8z"/>
<path class="st20" d="M35,38.5c0.2,0.6,0.5,1.2,0.9,1.6c0.2,0.2,0.5,0.4,0.4,0.7c-0.1,0-0.1-0.1-0.2-0.1c-0.5-0.4-0.9-0.9-1.5-1.2
	c0-0.4,0-0.9,0-1.3C34.8,38.2,34.9,38.2,35,38.5z"/>
<path class="st19" d="M34.6,39.5c0.6,0.3,0.9,0.8,1.5,1.2c0.1,0.1,0.1,0.1,0.2,0.1v0.1c-0.1,0-0.4,0-0.5,0
	C34.6,40.8,34.6,40.8,34.6,39.5z"/>
<path class="st21" d="M34.7,18.4c0.1-0.4,0.4-0.8,0.5-1.2c0.4-0.1,0.6-0.1,1,0c-0.1,0.4-0.1,0.8-0.6,0.9c-0.1,0.1-0.2,0.1-0.3,0.3
	C35.1,18.9,34.9,18.7,34.7,18.4z"/>
<path class="st23" d="M25.9,19.6c0.6-0.4,1.4-0.4,2-0.4c0.1,0.1,0.1,0.4,0.1,0.5c-0.4,0.1-0.8-0.2-1,0.2c-0.1,0.1-0.3,0.1-0.5,0.1
	C26.4,19.9,25.8,20.1,25.9,19.6z"/>
<path class="st15" d="M36.5,44c0.3,0.6,0.8,0.4,1.3,0.3c0,0.4,0,0.6,0,1c-0.5,0-0.9,0-1.4-0.4C36.5,44.6,36.5,44.3,36.5,44z"/>
<path class="st23" d="M33,20c-0.6,0.4-1.2,0.1-1.9,0.2c0.1-0.2,0.1-0.5,0.1-0.7c0.4,0.1,0.9,0.1,1.4,0.1C32.8,19.6,32.9,19.8,33,20z
	"/>
<path class="st21" d="M19.6,39.7c0.4-0.1,0.7,0.1,1.1,0.1c0.4,0.1,0.6,0,0.8-0.3c0.4,0.1,1,0.1,0.9,0.5c-0.1,0.4-0.6,0.1-1,0.1
	c-0.6-0.1-1.2-0.4-1.8-0.3C19.6,39.9,19.6,39.8,19.6,39.7z"/>
<path class="st16" d="M45.9,31.4c-0.1-0.3-0.3-0.4-0.5-0.6c-0.2-0.1-0.4-0.1-0.4-0.4h0.1c1.4-0.1,1.4-0.1,1.3,1.4
	C46.2,31.7,46.2,31.4,45.9,31.4z"/>
<path class="st21" d="M22.9,38.8c0.7,0.4,1.3,1,1.4,1.9c-0.2,0-0.4,0.1-0.6,0C23.6,40,23.1,39.5,22.9,38.8z"/>
<path class="st19" d="M27.5,42.3c-0.1,0.4-0.3,0.9-0.5,1.2c-0.2-0.1-0.4-0.1-0.6-0.1C26.5,42.7,26.9,42.4,27.5,42.3z"/>
<path class="st13" d="M30.4,42.7C30.9,43,31,43.5,31,44c0,0.4-0.3,0.4-0.6,0.2C30.3,43.7,30.3,43.2,30.4,42.7z"/>
<path class="st19" d="M30.5,48.5c0.1-0.9,0.4-1.2,1.2-1.3v0.1c-0.4,0.3-0.4,0.7-0.4,1.2c-0.2,0.1-0.4,0.1-0.6,0
	C30.6,48.5,30.6,48.5,30.5,48.5L30.5,48.5z"/>
<path class="st21" d="M39.7,28.4c-0.1,0-0.3,0-0.4,0c-0.1-0.7,0.1-1.4,0.4-2C39.7,27,39.7,27.8,39.7,28.4z"/>
<path class="st23" d="M27.2,18.1c-0.2-0.1-0.5-0.1-0.7-0.1c0-0.4-0.5-0.5-0.6-0.8c0.3,0,0.6,0,0.9,0c0,0.1,0.1,0.2,0.3,0.2
	c0,0.1,0.1,0.2,0.3,0.2c0,0.1,0,0.1,0,0.1C27.2,17.8,27.2,18,27.2,18.1z"/>
<path class="st21" d="M23.8,27.3c0.2,0,0.4,0,0.6,0.1c0,0.2,0.2,0.4,0.1,0.6c-0.6-0.1-1.3-0.1-1.8-0.5
	C23.1,27.2,23.5,27.6,23.8,27.3z"/>
<path class="st13" d="M43.1,42.3c-0.1,0.6-0.5,0.6-0.9,0.6C42.1,42.2,42.1,42.2,43.1,42.3z"/>
<path class="st23" d="M24.4,25.4c-0.6-0.2-0.6-0.8-0.6-1.2c0-0.3,0.4-0.1,0.6-0.1C24.4,24.5,24.4,25,24.4,25.4z"/>
<path class="st15" d="M26.4,43.4c0.2,0.1,0.4,0.1,0.6,0.1c0,0.5-0.4,0.7-0.7,1C26.3,44.1,26.2,43.7,26.4,43.4z"/>
<path class="st19" d="M26.4,47.6c0.2-0.1,0-0.6,0.4-0.5c0.3,0.1,0.2,0.4,0.3,0.6c0.1,0.4-0.4,0.1-0.4,0.4c0,0-0.1,0-0.1,0.1
	C26.5,48,26.4,47.8,26.4,47.6z"/>
<path class="st17" d="M34.6,36.5c0.5,0.5,0.5,1.2,0,1.4C34.6,37.4,34.6,36.9,34.6,36.5z"/>
<path class="st18" d="M27.2,17.7c0-0.1,0-0.1,0-0.1c0-0.1-0.1-0.2-0.3-0.2c-0.1,0-0.2-0.1-0.3-0.2c0.4,0.1,1.1-0.4,1,0.6
	C27.5,17.7,27.4,17.7,27.2,17.7z"/>
<path class="st23" d="M23.9,31.9c0.4,0.1,0.3,0.7,0.7,0.8c0,0.1,0,0.4,0,0.5C24.1,32.9,23.9,32.4,23.9,31.9z"/>
<path class="st22" d="M19.6,23.7C19.6,23.7,19.7,23.7,19.6,23.7c0.4,0,0.6,0.1,0.6,0.4c-0.1,0.4-0.4,0.1-0.6,0.2
	C19.5,24.2,19.5,24,19.6,23.7z"/>
<path class="st15" d="M35.8,42.9c-0.6,0.2-0.5-0.3-0.6-0.6C35.7,42.1,35.9,42.4,35.8,42.9z"/>
<path class="st15" d="M34.8,42.3c-0.1,0.3-0.1,0.6-0.4,0.9c0-0.2,0-0.4,0-0.6C34.4,42.3,34.6,42.2,34.8,42.3z"/>
<path class="st22" d="M27,20c0.2-0.5,0.6-0.1,1-0.2c0,0.1,0.1,0.1,0.1,0.2C27.7,20,27.4,20,27,20z"/>
<path class="st15" d="M27.8,23.7c0.1-0.4,0.4-0.6,0.7-0.8c0,0.1,0,0.1,0.1,0.2C28.2,23.2,28.2,23.6,27.8,23.7z"/>
<path class="st13" d="M45.8,36.2c0.1-0.4,0.3-0.6,0.6-0.7c0,0.1,0,0.3,0,0.4C46.1,35.9,46.1,36.3,45.8,36.2z"/>
<path class="st19" d="M44.1,42.9c0.2-0.4,0.6-0.1,0.9-0.2c0,0.1,0,0.1,0,0.2C44.8,42.9,44.4,42.9,44.1,42.9z"/>
<path class="st13" d="M33,42.5c-0.2,0.1-0.4,0.4-0.6,0.4c0-0.1,0-0.4,0-0.5C32.5,42.4,32.8,42.3,33,42.5z"/>
<path class="st22" d="M27.2,17.7c0.1,0,0.4,0,0.5,0c0,0.1,0,0.1,0,0.1c-0.2,0.1-0.3,0.3-0.6,0.3C27.2,18,27.2,17.8,27.2,17.7z"/>
<path class="st13" d="M52,17.2c-0.1,0.3-0.2,0.3-0.4,0C51.7,17.1,51.8,17.1,52,17.2z"/>
<path class="st15" d="M41.3,35.2c0.1,0,0.2,0,0.3,0c0,0.1-0.1,0.2-0.3,0.2C41.3,35.4,41.3,35.2,41.3,35.2z"/>
<path class="st18" d="M38.6,40.8L38.6,40.8c0.1-0.1,0.2,0,0.4,0C38.9,40.9,38.7,40.9,38.6,40.8z"/>
<path class="st18" d="M25.3,17.1c0,0.1,0,0.1,0,0.2c-0.1-0.1-0.1-0.1-0.1-0.2C25.2,17.1,25.2,17.1,25.3,17.1z"/>
<path class="st13" d="M30.5,48.5c0.1,0,0.1,0,0.1,0C30.6,48.6,30.6,48.6,30.5,48.5z"/>
<path class="st15" d="M26.3,45c0.1,0,0.1,0,0.1,0c-0.1,0.1-0.1,0.1-0.1,0.1C26.3,45.1,26.3,45,26.3,45z"/>
<path class="st13" d="M45.6,36.3L45.6,36.3C45.8,36.3,45.7,36.3,45.6,36.3z"/>
<path class="st13" d="M45.5,36.4L45.5,36.4C45.6,36.4,45.6,36.4,45.5,36.4z"/>
<path class="st19" d="M27.9,36.2c-0.4,0-0.7-0.3-0.4-0.6c0.6-0.6,0.1-1.2-0.1-1.8c-0.2-0.6-0.5-1.2-1.1-1.7c-0.1-0.1-0.1-0.3,0-0.4
	c0.1-0.1,0.4-0.1,0.4,0.1c0.2,0.2,0.4,0.5,0.5,0.8c0.4,0.7,1.2,1.1,1.6,1.7c0,0.4-0.4,0.5-0.4,0.9c-0.1,0.1-0.1,0.2-0.2,0.4
	C27.9,35.6,27.9,35.9,27.9,36.2z"/>
<path class="st21" d="M28.5,35c0-0.4,0.4-0.5,0.4-0.9c0.5,0,0.7,0.2,0.6,0.7c-0.3,0.8-0.2,1.6-0.3,2.4c-0.1,0.5-0.5,1-1,1
	c-0.2,0-0.2-0.3-0.4-0.4c0-0.1,0-0.4,0-0.5c0-0.4,0-0.9,0.1-1.3c0.1-0.3,0-0.6,0.4-0.8c-0.1,0.4-0.1,0.8-0.1,1.2
	c0,0.2,0.1,0.4,0.4,0.4s0.2-0.1,0.3-0.3c0.1-0.4,0.3-0.7,0.3-1.2C29.1,35.2,29,35,28.5,35z"/>
<path class="st21" d="M25.9,27.4c0.1-0.4-0.3-0.9,0.4-1.2c0,0.2,0,0.4,0,0.6C26.2,27,26.2,27.4,25.9,27.4z"/>
<path class="st17" d="M23.8,27.3c-0.3,0.4-0.7-0.1-1,0.1c-0.1,0-0.1,0-0.3,0c-0.1-0.1-0.1-0.1-0.3-0.1c0-0.1,0-0.4,0-0.5
	c0.1-0.6,0.4-0.6,0.9-0.3c0.1,0.1,0.2,0.1,0.3,0.1C23.4,26.9,23.6,27,23.8,27.3z"/>
<path class="st22" d="M22.6,28.1c0.4,0.1,0.4,0.6,0.4,0.9C22.3,28.9,22.6,28.5,22.6,28.1z"/>
<path class="st21" d="M38.5,28.4c-0.1,0-0.1,0-0.3,0c-0.3-0.1-0.3-0.3-0.2-0.5c0.1-0.4-0.1-0.8-0.4-1c0-0.5,0.4-1-0.2-1.6
	c-0.1-0.1,0.1-0.7,0.6-0.8c0,0.5,0,1,0,1.5C38.1,26.8,38.4,27.6,38.5,28.4z"/>
<path class="st23" d="M38.9,21.4c-0.1,0.7-0.4,1.4-0.5,2c-0.3-0.1-0.2-0.3-0.2-0.5c0.3-0.3,0.3-0.7,0.4-1.1
	C38.7,21.6,38.7,21.4,38.9,21.4z"/>
<path class="st23" d="M38.2,24.4c-0.1,0.1-0.1,0.1-0.3,0.1c0-0.3-0.1-0.7,0.4-0.8C38.3,24,38.3,24.2,38.2,24.4z"/>
<path class="st23" d="M37.7,34.5c0.6,0.1,0.6-0.4,0.9-0.6c0.1-0.1,0.2-0.4,0.5-0.2c0.1,0.1,0.1,0.4-0.1,0.6
	c-0.1,0.2-0.1,0.4-0.1,0.6c0,0.5,0,1,0,1.6c0,1,0,1-0.9,1.2c-1,0.2-1.5,0-1.9-0.9c-0.4-0.8-0.1-1.1,0.6-1.1
	C37.4,35.5,37.6,35,37.7,34.5L37.7,34.5z M37.7,35.7c-0.2,0.1-0.4,0.1-0.5,0.1c-0.6,0.2-0.6,0.6-0.2,1.1c0.4,0.4,0.9,0.3,1.2-0.1
	c0.1-0.1,0.5-0.2,0.4-0.5C38.3,36,38,35.7,37.7,35.7z"/>
<path class="st18" d="M23.6,20.4c0.1,0,0.2-0.1,0.4-0.1c0.6,0.5,0.6,0.6,0,1c-0.7,0.5-1.4,1-2.2,1.6c-0.2,0.1-0.5,0.2-0.7,0.1
	c-0.2-0.2-0.1-0.4,0-0.7c0.1-0.4,0.3-0.7,0.4-1.1c0.1,0,0.4,0.1,0.5-0.1c0.4-0.1,0.9-0.4,1.4-0.5C23.4,20.7,23.5,20.6,23.6,20.4z"/>
<path class="st21" d="M25.4,18c0.2,0.1,0.4,0.4,0,0.4c-0.4,0.1-0.9,0.4-1.4,0.3c-0.2-0.6-0.1-0.7,0.5-0.7C24.9,18,25.1,18,25.4,18z"
	/>
<path class="st22" d="M34.2,20.4c0-0.1,0-0.3,0-0.4c0.2,0,0.5-0.2,0.6,0.2C34.6,20.1,34.5,20.4,34.2,20.4z"/>
<path class="st20" d="M35.8,38.7c-0.2,0-0.4,0.1-0.4-0.2C35.5,38.4,35.7,38.5,35.8,38.7z"/>
<path class="st20" d="M36.4,39c-0.1,0-0.3-0.1-0.3-0.2C36.3,38.7,36.4,38.8,36.4,39z"/>
<path class="st23" d="M24.9,22.2c0,0.1,0,0.2,0,0.4c-0.2,0-0.4,0-0.5,0.1c-0.7,0.5-0.7,0.5-1.2-0.2C23.8,22.4,24.3,22.3,24.9,22.2z"
	/>
<path class="st23" d="M24.6,20c0.1-0.4,0.4-0.4,0.8-0.4C25.2,19.9,25,20,24.6,20z"/>
<path class="st19" d="M43,43.9c0.2-0.4,0.4-0.9,1-0.9C43.8,43.5,43.5,43.9,43,43.9z"/>
<path class="st16" d="M32.4,47.1c0-0.9,0.1-1.9,0.1-2.7c0.1,0,0.2,0,0.4,0c0.3,0.6,0.3,1.2,0.3,1.9C33,46.7,32.9,47.1,32.4,47.1z"/>
<path class="st13" d="M38.2,28.6c0.1,0.2,0.1,0.4-0.1,0.5c-0.5,0.1-1,0.3-1.6,0.4c-0.3,0.1-0.5,0-0.5-0.4c0.3-0.1,0.6-0.3,0.9-0.4
	c0.2,0.2,0.3,0.1,0.4-0.1C37.7,28.6,37.9,28.6,38.2,28.6z"/>
<path class="st15" d="M37.4,28.6c-0.1,0.2-0.2,0.3-0.4,0.1c0-0.1,0-0.1,0-0.1C37.1,28.6,37.2,28.6,37.4,28.6z"/>
<path class="st22" d="M23.6,20.4c-0.1,0.1-0.1,0.3-0.3,0.1C23.3,20.4,23.4,20.4,23.6,20.4z"/>
<path class="st15" d="M27.6,45.5c0,0.6,0.1,1.2,0.1,1.7c-0.6-0.5-1-1.1-0.9-1.9C27.1,45.4,27.3,45.5,27.6,45.5z"/>
<path class="st13" d="M32.8,44.4c-0.1,0-0.2,0-0.4,0c-0.1-0.3-0.1-0.6-0.2-0.9C32.9,43.3,33.1,43.2,32.8,44.4z"/>
<path class="st22" d="M26.9,17.3c0.1,0,0.3,0.1,0.3,0.2C27,17.6,26.9,17.6,26.9,17.3z"/>
<path class="st23" d="M28.5,35C29,35,29,35.2,29,35.6s-0.2,0.7-0.3,1.2c0,0.1-0.1,0.3-0.3,0.3c-0.2,0-0.4-0.1-0.4-0.4
	c0-0.4,0-0.9,0.1-1.2C28.4,35.3,28.5,35.2,28.5,35z"/>
<path class="st22" d="M37.7,35.7c0.4,0.1,0.6,0.2,0.8,0.6c0.1,0.3-0.2,0.4-0.4,0.5c-0.4,0.4-0.7,0.6-1.2,0.1
	c-0.5-0.4-0.4-0.9,0.2-1.1C37.3,35.8,37.4,35.7,37.7,35.7z"/>
</svg>
