<?xml version="1.0" encoding="utf-8"?>
<!-- Generator: Adobe Illustrator 25.2.1, SVG Export Plug-In . SVG Version: 6.00 Build 0)  -->
<svg version="1.1" id="Layer_1" xmlns="http://www.w3.org/2000/svg" xmlns:xlink="http://www.w3.org/1999/xlink" x="0px" y="0px"
	 viewBox="0 0 377 113" style="enable-background:new 0 0 377 113;" xml:space="preserve">
<style type="text/css">
	.st0{fill:#0F41D5;}
	.st1{font-family:'Rockwell';}
	.st2{font-size:18px;}
	.st3{fill:#EA3EBA;}
	.st4{font-family:'BritannicBold';}
	.st5{font-size:44px;}
	.st6{fill:#1EA6BF;}
	.st7{fill:#5E2245;}
	.st8{fill:#146470;}
	.st9{fill:#238292;}
	.st10{fill:#8E509E;}
	.st11{fill:#553668;}
	.st12{fill:#6A53A2;}
	.st13{fill:#C9509C;}
	.st14{fill:#3D4FA1;}
	.st15{fill:#5894CE;}
	.st16{fill:#33429A;}
	.st17{fill:#31286C;}
	.st18{fill:#3D5DA9;}
	.st19{fill:#3D7BBE;}
	.st20{fill:#3C6AB2;}
</style>
<g>
	<g transform="translate(120.791596, 72.571339)">
	</g>
</g>
<g>
	<g transform="translate(160.438761, 72.571339)">
	</g>
</g>
<g>
	<g transform="translate(177.345154, 72.571339)">
	</g>
</g>
<g>
	<g transform="translate(208.613764, 72.571339)">
	</g>
</g>
<g>
	<g transform="translate(105.17357, 26.286019)">
	</g>
</g>
<g>
	<g transform="translate(125.65485, 26.286019)">
	</g>
</g>
<g>
	<g transform="translate(169.213306, 26.286019)">
	</g>
</g>
<g>
	<g transform="translate(206.36282, 26.286019)">
	</g>
</g>
<text transform="matrix(1 0 0 1 105.778 32.04)" class="st0 st1 st2">MITRA PT Media Sarana Akses</text>
<text transform="matrix(1 0 0 1 103.4026 71.4685)" class="st3 st4 st5">MENJO - NET</text>
<g>
	<g>
		<path d="M120.6,89.7c0-2.9,0-5.6,0.1-7.1h-0.1c-0.6,2-3.6,9.2-5.4,13.9H114c-1.4-3.6-4.5-11.7-5.2-13.9l0,0
			c0.1,1.7,0.1,5.1,0.1,7.6v6.3h-1.1V81.8h1.7c2,5,4.6,11.6,5.1,13.3l0,0c0.3-1.1,3.3-8.4,5.3-13.3h1.7v14.7h-1.1L120.6,89.7
			L120.6,89.7z"/>
		<path d="M127.1,81.8v8.9c0,3.9,2.2,4.9,4.3,4.9c2.5,0,4.3-1,4.3-4.9v-8.9h1.2v8.8c0,4.6-2.4,6-5.5,6c-2.9,0-5.4-1.6-5.4-5.8v-9
			H127.1z"/>
		<path d="M141,81.8h1.1v13.6h7.9l-0.2,1H141V81.8z"/>
		<path d="M155.6,82.8h-4.9v-1h11v1h-5v13.6h-1.2L155.6,82.8L155.6,82.8z"/>
		<path d="M165.2,81.8v14.7h-1.1V81.8H165.2z"/>
		<path d="M182.2,89.7c0-2.9,0-5.6,0.1-7.1h-0.1c-0.6,2-3.6,9.2-5.4,13.9h-1.1c-1.4-3.6-4.5-11.7-5.2-13.9l0,0
			c0.1,1.7,0.1,5.1,0.1,7.6v6.3h-1.1V81.8h1.7c2,5,4.6,11.6,5.1,13.3l0,0c0.3-1.1,3.3-8.4,5.3-13.3h1.7v14.7h-1.1V89.7z"/>
		<path d="M196.2,89.3h-7.5v6.2h8.2l-0.2,1h-9.2V81.8h9v1h-7.9v5.4h7.5L196.2,89.3L196.2,89.3z"/>
		<path d="M200,81.8h4.9c4,0,6.8,2.8,6.8,7.2c0,4.4-2.7,7.5-6.8,7.5H200V81.8z M201.2,95.4h3.5c3.9,0,5.8-2.7,5.8-6.4
			c0-3.2-1.7-6.2-5.8-6.2h-3.5V95.4z"/>
		<path d="M216.3,81.8v14.7h-1.1V81.8H216.3z"/>
		<path d="M222.1,91.4l-1.9,5.1H219l5.4-14.7h1.3l5.6,14.7h-1.2l-1.9-5.1H222.1z M227.9,90.4c-1.6-4.4-2.5-6.5-2.8-7.5l0,0
			c-0.4,1.1-1.3,3.7-2.6,7.5H227.9z"/>
		<path d="M251.7,87l-3.7,5.7c-1.8,2.8-3.1,4-5.4,4c-2.4,0-3.8-1.9-3.8-3.7c0-1.8,0.8-3.1,3.9-4.8c2.1-1.4,2.9-2,2.9-3.3
			c0-1.2-0.7-2.3-2.1-2.3c-1.3,0-2.2,0.8-2.2,2.4c0,0.9,0.7,1.8,1.9,3l8.7,8.6h-1.6l-7.9-7.8c-1.4-1.3-2.2-2.3-2.2-3.8
			c0-1.7,1.1-3.3,3.4-3.3c1.9,0,3.2,1.4,3.2,3.2c0,1.4-0.8,2.4-3.4,3.9c-3,1.7-3.5,2.7-3.5,4.1c0,1.5,1.3,2.8,2.7,2.8
			c1.7,0,2.8-0.6,4.7-3.6l3.1-5L251.7,87L251.7,87z"/>
		<path d="M260.7,96.5V81.8h1.7c2.3,3.5,7.7,11.7,8.6,13.3l0,0c-0.1-2.1-0.1-4.3-0.1-6.7v-6.7h1.2v14.7h-1.6
			c-2.2-3.4-7.6-11.9-8.7-13.6l0,0c0.1,1.9,0.1,4.1,0.1,6.7v6.8h-1.2V96.5z"/>
		<path d="M284.9,89.3h-7.5v6.2h8.2l-0.2,1h-9.2V81.8h9v1h-7.9v5.4h7.5v1.1H284.9z"/>
		<path d="M291.7,82.8h-4.9v-1h11v1h-5v13.6h-1.2V82.8H291.7z"/>
		<path d="M302.8,96.5l-4.1-14.7h1.2c1,3.5,3.2,11.7,3.5,13.4l0,0c0.3-1.4,2.7-9.5,3.7-13.4h1.3c1,3.6,3.3,12.2,3.5,13.4l0,0
			c0.5-2.1,2.9-9.8,3.9-13.4h1.2l-4.5,14.7h-1.3c-1-3.5-3.3-12-3.5-13.2l0,0c-0.4,1.9-2.6,9.6-3.7,13.2H302.8z"/>
		<path d="M332.1,89c0,4-2.1,7.7-6.7,7.7c-4.1,0-6.6-3.3-6.6-7.6c0-4.2,2.3-7.6,6.7-7.6C329.6,81.6,332.1,84.8,332.1,89z
			 M320.1,89.1c0,3.4,1.9,6.6,5.4,6.6c3.8,0,5.4-3.1,5.4-6.6c0-3.4-1.8-6.4-5.4-6.4C321.8,82.6,320.1,85.8,320.1,89.1z"/>
		<path d="M336.7,89.6v6.9h-1.2V81.8h5.3c2.9,0,4.4,1.6,4.4,3.9c0,1.9-1.1,3.1-2.8,3.4c1.5,0.4,2.5,1.3,2.5,3.8v0.6
			c0,1-0.1,2.4,0.2,3H344c-0.3-0.6-0.2-1.8-0.2-3.1V93c0-2.4-0.7-3.4-3.5-3.4H336.7z M336.7,88.6h3.5c2.6,0,3.8-1,3.8-2.9
			c0-1.8-1.2-2.8-3.5-2.8h-3.9v5.7C336.6,88.6,336.7,88.6,336.7,88.6z"/>
		<path d="M348.9,81.8h1.1v7.6c1.2-1.1,5.4-5.1,8-7.6h1.5l-6.6,6.3l7,8.4h-1.4l-6.4-7.7l-2.1,1.8v5.9h-1.1V81.8z"/>
	</g>
</g>
<path class="st6" d="M29.7,25c2.9-2.2,6-3.8,9.4-5.2c6.5-2.6,13.3-3.5,20.2-2.8c2.4,0.2,4.7,0.6,7,1.4c0,0.1,0.1,0.2,0.2,0.2l0,0
	c-0.1,0.3,0.1,0.4,0.3,0.6c0.7,0.6,1.1,1.3,1.4,2.1c-0.8-0.1-1.6-0.5-2.4-0.7c-5-1.3-10-1.7-15.2-1.2c-4.7,0.5-9.1,1.7-13.4,3.7
	c-2,0.9-3.8,2.2-5.7,3.3c0-0.2,0-0.4-0.1-0.5C30.6,25.8,30.3,25.1,29.7,25z"/>
<path class="st7" d="M59.3,102.4c-10,1-19.2-1.2-27.7-6.6c-0.1,0-0.1-0.1-0.2-0.2c0.3-0.9,1-1.1,1.8-1.3c0.3,0,0.5,0.2,0.8,0.4
	c1.7,1.1,3.6,1.9,5.5,2.7c1.1,0.5,2.3,0.7,3.4,1.3c0.3,0.6,0.8,1,0.9,1.7c0,0.1,0,0.4,0.3,0.3c0.1-0.7,0-1.3-0.3-1.9
	c2.2,0.5,4.3,1,6.5,1.2c3.4,0.3,6.9,0.3,10.3-0.1c0,0.4-0.2,0.7-0.4,0.9C59.8,101.4,59.4,101.8,59.3,102.4z"/>
<path class="st8" d="M83.2,27.7c2.4,1.9,4.4,4.2,6.2,6.7c0.4,0.5,0.9,0.9,1,1.6c-0.4,0-0.6-0.3-0.9-0.5c-0.6-0.4-1-1.1-1.7-1.3
	c0,0,0,0,0-0.1l0,0c0,0,0.1,0,0.1,0.1c0.4,1,1.3,1.5,2.1,2.1c0.2,0.2,0.7,0.4,0.5,0.6c-0.6,0.6,0,1.1-0.2,1.7c0.6-0.4,0.8-1,1.1-1.5
	c1.8,2.7,3.1,5.6,4.2,8.7c-0.6,0.3-1.3,0.6-2,0.7c-0.9-2.5-2.1-5-3.4-7.3c0-0.2,0-0.3-0.2-0.3c-0.7-1.1-1.5-2.2-2.2-3.2
	c-2.6-3.5-5.6-6.5-9.1-9.1c0.2-0.2,0.5-0.4,0.7-0.6c0.1-0.1,0.3-0.2,0.4-0.1c0.3,0.8,1.3,1,1.3,2c0.2-0.2,0.3-0.4,0.4-0.5
	c0.6,0.7,1.2-0.1,1.8,0.1l0,0c0,0.1,0,0.2,0.1,0.2C83.1,27.7,83.2,27.7,83.2,27.7z M87.4,33.8L87.4,33.8
	C87.4,33.8,87.3,33.8,87.4,33.8C87.3,33.8,87.3,33.8,87.4,33.8C87.3,33.8,87.4,33.8,87.4,33.8z"/>
<path class="st8" d="M97.3,65.4c-0.5,4.1-1.6,8-3.3,11.7c-0.5,0-1,0-1.3-0.5c-0.1-0.2-0.4-0.4-0.6-0.3c0.6-1.7,1.3-3.3,1.8-5
	c1.4-4.6,1.8-9.3,1.6-14.1c0.8-0.3,1.4,0.5,2.2,0.5c0.1,1.8,0.2,3.6-0.1,5.4c-0.4,0-1-0.2-1,0.5C96.5,64.3,96.5,65.1,97.3,65.4z"/>
<path class="st9" d="M17.1,80.1c-1.8-2.9-2.9-6.1-3.8-9.4c-0.6-2.2-1-4.4-1.2-6.7c0.7,0.1,1.5,0.1,2.2,0.2c0.2,1.6,0.5,3.2,0.8,4.8
	c0.7,3.3,2,6.3,3.4,9.4C18.2,79.1,17.5,79.5,17.1,80.1z"/>
<path class="st9" d="M12.4,53.2c0.2-2.3,0.8-4.5,1.6-6.7c1-2.9,2.2-5.7,3.8-8.3c0.2,0.4,0.6,0.7,0.7,1.3c0,0.2,0.3,0.5,0.7,0.5
	c-2.1,3.8-3.5,7.8-4.4,12.1C13.9,52.2,13.3,53,12.4,53.2z"/>
<path class="st10" d="M77.6,96c-3.8,2.5-8,4.3-12.5,5.4c-1.1,0.3-2.2,0.4-3.2,0.7c0-0.2,0-0.6-0.4-0.5c-0.4,0-0.3,0.4-0.3,0.6
	c-0.4,0.2-0.8,0.2-1.2,0.1c0.5-1.1,1.4-1.6,2.2-1.1s1.5,0.2,2-0.3c0.4-0.4,0.7-0.4,1.1-0.3s0.8,0.2,0.8-0.4c-0.1-0.9,0.4-1,1-0.9
	c0.8,0.1,1.2-0.2,1.1-1.1c2.7-1,5.3-2.2,7.8-3.7C76.6,95,77.3,95.3,77.6,96z"/>
<path class="st6" d="M12.4,53.2c0.9-0.2,1.5-0.9,2.4-1.2c-0.4,2.2-0.7,4.5-0.7,6.8c0,1.8,0,3.7,0.2,5.5c-0.7-0.1-1.5-0.1-2.2-0.2
	C11.7,60.4,11.7,56.8,12.4,53.2z"/>
<path class="st8" d="M68.1,21.2c-0.3-0.8-0.8-1.5-1.4-2.1c-0.2-0.1-0.4-0.3-0.3-0.6c1.1,0,2.1,0.6,3.1,0.9c0.1,0.5-0.5,0.7-0.6,1.2
	c0.7-0.2,1.1-0.5,1.5-0.9c2.7,1,5.3,2.3,7.7,4c0,0.5-0.1,1,0.2,1.4c0.2,0.2,0,0.4-0.2,0.4s-0.4,0.1-0.5,0.4
	C74.6,24,71.5,22.4,68.1,21.2z"/>
<path class="st8" d="M17.1,80.1c0.4-0.6,1.1-1,1.4-1.8c1.5,2.8,3.3,5.4,5.4,7.9c0.4,0.5,0.9,0.8,1.1,1.4c-0.1,0.4-0.1,0.6-0.6,0.7
	c-0.7,0.1-1-0.3-1.1-0.9c-0.1,0.4-0.3,0.7-0.4,0.9C20.5,85.9,18.6,83.1,17.1,80.1z"/>
<path class="st11" d="M87.8,87.1c-2.1,2.6-4.5,4.9-7.2,6.8c-0.5-0.2-0.8-0.5-0.8-1.1c0-0.3-0.2-0.5-0.5-0.6c2.5-2,4.8-4.2,6.9-6.6
	C86.7,86.2,87.2,86.7,87.8,87.1z"/>
<path class="st8" d="M23.3,30.6c1.7-1.9,3.6-3.6,5.6-5.1c1,0.1,1.3,0.8,1.3,1.7c-1.7,1.3-3.3,2.7-4.7,4.2c-0.3,0.3-0.6,0.7-1,0.7
	c-0.1-0.4,0.1-0.9-0.6-0.9l0,0C23.9,30.8,23.6,30.7,23.3,30.6z"/>
<path class="st11" d="M33.2,94.4c-0.7,0.2-1.5,0.4-1.8,1.3c-0.3-0.1-0.5-0.3-0.7-0.4c0.1-0.4,0.1-0.7,0-1.1
	c-0.2-0.6-0.8-0.5-1.1-0.7c-0.3-0.1-0.4,0.4-0.5,0.7c-1.1-0.8-2.2-1.6-3.2-2.6c0.2-0.1,0.2-0.4,0.2-0.6c-0.1-0.6,0.1-0.9,0.7-0.8
	c0.1,0,0.2-0.1,0.3-0.2c1.5,1.3,3,2.6,4.7,3.7C32.4,93.8,32.9,93.9,33.2,94.4z"/>
<path class="st9" d="M97.7,57.7c-0.8,0-1.4-0.8-2.2-0.5c0-0.1,0-0.2,0-0.4h0.1c0,0,0-0.1-0.1-0.1c-0.3-1.9-0.5-3.7-0.8-5.6
	c0.3,0,0.5,0,0.7,0.2c0.4,0.5,1,0.6,1.6,0.5C97.4,53.7,97.6,55.7,97.7,57.7z"/>
<path class="st7" d="M92.1,76.2c0.3,0,0.5,0.1,0.6,0.3C93,77,93.5,77.1,94,77c-0.7,1.8-1.6,3.5-2.7,5c-0.1,0.1-0.1,0.3-0.2,0.4
	c-0.5-0.6-1.3-0.6-1.8-1C90.3,79.7,91.2,78,92.1,76.2z"/>
<path class="st11" d="M68.2,98.2c0.2,0.9-0.2,1.2-1.1,1.1c-0.7-0.1-1.1,0-1,0.9c0.1,0.6-0.4,0.5-0.8,0.4c-0.5-0.1-0.7-0.1-1.1,0.3
	c-0.5,0.4-1.1,0.8-2,0.3c-0.8-0.5-1.7,0-2.2,1.1c-0.2,0-0.5,0.1-0.7,0.1c0.1-0.5,0.5-1,0.8-1.4c0.2-0.3,0.4-0.6,0.4-0.9
	C63.1,99.7,65.7,99,68.2,98.2z"/>
<path class="st8" d="M19.1,39.9c-0.4,0-0.7-0.3-0.7-0.5c0-0.6-0.5-0.8-0.7-1.3c0.6-1.2,1.3-2.3,2.1-3.3c0.7,0.3,1.3,0.6,2,0.9
	C20.9,37.1,20,38.5,19.1,39.9z"/>
<path class="st11" d="M89.3,81.5c0.6,0.4,1.3,0.5,1.8,1c-0.6,1.1-1.3,2.1-2.1,3c-0.9,0.2-1.3-0.6-1.8-1.1
	C87.9,83.5,88.6,82.5,89.3,81.5z"/>
<path class="st9" d="M77.6,25.9c0.1-0.2,0.3-0.3,0.5-0.4c0.3,0,0.4-0.1,0.2-0.4c-0.3-0.4-0.2-0.9-0.2-1.4c1.8,1,3.4,2.3,4.9,3.7
	c-0.6-0.2-1.2,0.6-1.8-0.1c-0.1,0.1-0.2,0.3-0.4,0.5c0-1-1-1.3-1.3-2c0-0.1-0.3,0-0.4,0.1c-0.2,0.2-0.5,0.4-0.7,0.6
	C78.2,26.4,77.9,26.1,77.6,25.9z"/>
<path class="st8" d="M97,51.8c-0.6,0.1-1.2,0-1.6-0.5c-0.2-0.2-0.5-0.2-0.7-0.2c-0.2-0.9-0.4-1.7-0.6-2.6c0.6,0,1.3,0.2,1.6-0.7
	c0,0,0.2,0,0.3-0.1C96.5,49.1,96.7,50.4,97,51.8z"/>
<path class="st8" d="M21.2,33.1c0.5-0.7,1-1.4,1.7-1.9c0.4,0,0.7,0,1.1,0l0,0c-0.1,0.6,0.2,1.1,0.2,1.7c-0.6,0.7-1.1,1.6-1.9,2.2
	c-0.1-0.2-0.1-0.4-0.1-0.6C22,33.8,22,33.2,21.2,33.1z"/>
<path class="st10" d="M79.4,92.2c0.3,0.1,0.5,0.3,0.5,0.6c-0.1,0.6,0.3,0.9,0.8,1.1c-0.7,0.7-1.6,1.2-2.5,1.7c0-0.4-0.2-0.7-0.4-1
	c-0.2-0.3-0.6-0.5-0.5-0.9C78,93.2,78.7,92.7,79.4,92.2z"/>
<path class="st9" d="M96,47.8c-0.1,0-0.3,0-0.3,0.1c-0.3,0.9-1,0.6-1.6,0.7c-0.2-0.6-0.4-1.3-0.6-1.9c0.7-0.1,1.4-0.4,2-0.7
	C95.7,46.5,95.9,47.1,96,47.8z"/>
<path class="st11" d="M22.9,88.3c0.1-0.3,0.2-0.5,0.4-0.9c0.2,0.6,0.5,1,1.1,0.9c0.5-0.1,0.5-0.4,0.6-0.7c0.3,0.1,0.5,0.3,0.6,0.7
	c-0.2,0-0.3,0.1-0.3,0.4c0,0.8,0.1,1.5,0.3,2.3C24.4,90.3,23.7,89.3,22.9,88.3z"/>
<path class="st9" d="M21.2,33.1c0.8,0.1,0.8,0.8,0.9,1.3c0,0.2,0,0.4,0.1,0.6c0,0.3-0.1,0.5-0.4,0.7c-0.7-0.3-1.3-0.6-2-0.9
	C20.2,34.2,20.7,33.6,21.2,33.1z"/>
<path class="st12" d="M87.2,84.4c0.6,0.5,0.9,1.3,1.8,1.1c-0.3,0.6-0.7,1.1-1.2,1.5c-0.6-0.4-1.1-0.9-1.6-1.4
	C86.6,85.2,86.9,84.8,87.2,84.4z"/>
<path class="st7" d="M25.5,90.9c-0.2-0.7-0.3-1.5-0.3-2.3c0-0.3,0.1-0.3,0.3-0.4c0.8,0.3,1.2,1,1.7,1.5c0,0.2-0.2,0.3-0.3,0.3
	c-0.6-0.1-0.8,0.3-0.7,0.8c0,0.2,0,0.5-0.2,0.6C25.8,91.3,25.4,91.3,25.5,90.9z"/>
<path class="st9" d="M91.3,37.1c-0.4,0.4-0.5,1-1.1,1.5c0.2-0.7-0.4-1.2,0.2-1.7c0.2-0.2-0.2-0.4-0.5-0.6c-0.8-0.6-1.7-1.1-2.1-2.1
	l0,0c0.7,0.2,1.1,0.9,1.7,1.3c0.3,0.2,0.6,0.4,0.9,0.5C90.8,36.2,91,36.7,91.3,37.1z"/>
<path class="st9" d="M30.2,27.2c0-0.9-0.4-1.5-1.3-1.7c0.2-0.2,0.4-0.5,0.7-0.5c0.6,0.1,1,0.8,1.7,0.8c0.2,0,0.1,0.3,0.1,0.5
	C31,26.5,30.8,27,30.2,27.2z"/>
<path class="st13" d="M77.3,93.7c-0.1,0.4,0.3,0.7,0.5,0.9c0.3,0.3,0.4,0.6,0.4,1C78,95.8,77.9,96,77.6,96c-0.4-0.7-1-1-1.6-1.4
	C76.4,94.3,76.8,94,77.3,93.7z"/>
<path class="st9" d="M97.3,65.4c-0.8-0.4-0.8-1.1-0.8-1.8c0-0.6,0.6-0.4,1-0.5C97.6,63.9,97.5,64.7,97.3,65.4z"/>
<path class="st12" d="M29.2,94.1c0.1-0.3,0.2-0.8,0.5-0.7c0.4,0.2,1,0.1,1.1,0.7c0.1,0.4,0.1,0.7,0,1.1
	C30.2,94.9,29.6,94.6,29.2,94.1z"/>
<path class="st9" d="M70.4,19.8c-0.4,0.4-0.8,0.7-1.5,0.9c0.2-0.5,0.8-0.7,0.6-1.2C69.9,19.6,70.2,19.7,70.4,19.8z"/>
<path class="st9" d="M23.9,31.2c-0.4,0-0.7,0-1.1,0c0.1-0.2,0.3-0.4,0.5-0.5C23.6,30.7,23.9,30.8,23.9,31.2z"/>
<path class="st9" d="M83.2,27.7c0,0-0.1,0-0.1,0.1c0-0.1,0-0.2-0.1-0.2C83.1,27.6,83.2,27.6,83.2,27.7z"/>
<path class="st8" d="M66.4,18.6c-0.1,0-0.2-0.1-0.2-0.2C66.3,18.5,66.4,18.5,66.4,18.6z"/>
<path class="st10" d="M42.8,98.8c0.3-0.1,0.6,0,0.8,0.2c0.3,0.6,0.4,1.2,0.3,1.9c-0.3,0-0.3-0.2-0.3-0.3
	C43.7,99.8,43.2,99.3,42.8,98.8z"/>
<path class="st9" d="M90,39.2c-0.1-0.1-0.1-0.2-0.2-0.3C90,38.9,90.1,39,90,39.2z"/>
<path class="st9" d="M87.4,33.8C87.4,33.8,87.3,33.8,87.4,33.8C87.3,33.8,87.3,33.8,87.4,33.8C87.3,33.8,87.4,33.8,87.4,33.8
	L87.4,33.8z"/>
<path class="st9" d="M87.8,34.1C87.7,34.1,87.7,34.1,87.8,34.1C87.7,34.1,87.7,34.1,87.8,34.1L87.8,34.1L87.8,34.1z"/>
<path class="st9" d="M24.5,32.1c0.3,0.5-0.2,0.6-0.4,0.8c0-0.6-0.3-1.1-0.2-1.7C24.6,31.2,24.4,31.7,24.5,32.1z"/>
<path class="st8" d="M95.5,56.8c0-0.1,0-0.1,0-0.2C95.5,56.7,95.5,56.8,95.5,56.8C95.6,56.8,95.5,56.8,95.5,56.8z"/>
<path class="st13" d="M75,38.7c0.1,0,0.2,0,0.4,0c0.2,0.4,0.3,0.4,0.5,0c0.9,0,1.8,0,2.7-0.1c0.4,0,0.6,0.1,0.6,0.5
	c-0.1,8.6,0.2,17.1-0.2,25.7c-0.1,2.5-1.1,4.7-3.4,5.9c-3.2,1.7-6.6,1.7-10,0.4c0-0.3,0-0.6,0-1c0-1.2,0.2-2.3,0.9-3.2
	c0.3-0.4,0.8-0.9,0.4-1.5H67c0.1,0,0.1,0,0.1-0.1c0,0,0-0.1,0.1-0.1s0.1,0,0.1-0.1V65c0.5,0.1,0.6-0.4,0.9-0.5
	c0.1,0.1,0.1,0.1,0.2,0.2c0.5,0.9,1.2,1.3,2.2,1s1.3-1.1,1.4-2c0.1-0.4,0.1-0.8,0.1-1.1c0-6.4,0-12.9,0-19.3c0-0.3,0-0.6,0-0.9
	c0.8,0,1.1-0.6,1.5-1.1C74.2,40.6,75.2,40,75,38.7z"/>
<path class="st14" d="M48,71c0.1,0.4-0.1,0.6-0.6,0.6c-1.8,0-3.6,0-5.5,0c-0.6,0-0.5-0.5-0.6-0.9c0.4,0,0.4-0.3,0.5-0.6
	c0.3-0.8-0.1-1.6,0.3-2.4c0.2,0.1,0.2,0.5,0.6,0.5c0.6,0,1.3-0.7,1.4-1.4c0.1-1.1,0.1-2.2,0.4-3.3c0.2-0.7-0.1-1-0.8-1
	c-0.6-0.9-1.7-1.3-2.2-2.4c-0.2-0.4-0.4-0.7-0.7-1.1c-0.1-0.2-0.4-0.3-0.6-0.1c-0.2,0.2-0.2,0.4,0,0.6c0.7,0.6,1.2,1.5,1.5,2.4
	c0.3,0.8,0.9,1.6,0.1,2.5c-0.4,0.4,0,0.8,0.6,0.8c-0.2,0.6-0.2,1.2-0.2,1.8c-0.7-0.1-0.9,0.6-1.3,0.9c-0.1-0.6-0.2-1.3-0.3-1.9
	c0.6-1,0.6-2,0.4-3.2c-0.2-0.7-0.4-1.2-1.2-1.4c-0.4-2.7-0.9-5.3-1.3-8c0.4,0,0.7-0.1,1-0.3c0.5,0,0.3-0.5,0.5-0.7
	c0.8,0.3,1,1.2,1.7,1.4c-0.4,0.9-0.8,1.6,0.5,2.4c1.3,0.8,2.2,2.2,1.8,4c0,0.1,0,0.2,0,0.3c0,0.3-0.2,0.7,0.2,0.9s0.7-0.1,1-0.4
	c1.3-1.3,2.7-2.5,4.7-2.2c-0.1,0.5-0.2,1.1-0.3,1.6c-0.8,0-1.5-0.1-2.2,0.2c-0.9,0.3-1.1,1.3-0.5,2s1.4,0.8,2.3,0.8
	c-0.1,0.6-0.2,1.2-0.3,1.7c-1,0.1-1.7,0.8-1.8,1.8c0,0.7,0.7,1,1.3,1.2c0,0.1,0,0.2-0.1,0.3c-1,0-2,0.2-2.6-0.8
	c-0.1-0.2-0.3-0.2-0.5-0.1c-0.2,0.2-0.2,0.4,0,0.6c0.6,0.6,0.4,0.9-0.2,1.4c-0.4,0.3-0.4,0.8-0.2,1.2c0.2,0.5,0.6,0.6,1.1,0.4
	C46.7,70.9,47.4,70.7,48,71z"/>
<path class="st15" d="M30.9,60c-0.2-1.1-0.1-2.3-0.1-3.4c0-2-0.1-4.1,0.1-6.1c0.6,0,1.3-0.1,1.9,0s1.4,0.2,1.3,1.1
	c-0.1,0.6,0.1,0.9,0.5,1.2c0.1,0.1,0.2,0.1,0.4,0.2c0,0.3,0,0.7,0,1c0,0.5-0.3,1.1,0.5,1.3c0,0.5,0,0.9,0,1.4c0,0.4-0.1,0.8,0.1,1.1
	c1,1.2-0.4,2.3-0.2,3.4c0,0-0.1,0.1-0.2,0.2c-0.7,0.2-1.5-0.3-2.2,0c-0.4,0.1-0.2-0.4-0.4-0.5C32,60.6,31.6,59.9,30.9,60z"/>
<path class="st16" d="M50.1,58.8c-2.1-0.3-3.4,0.9-4.7,2.2c-0.3,0.3-0.6,0.5-1,0.4c-0.4-0.2-0.2-0.6-0.2-0.9c0-0.1,0-0.2,0-0.3
	c0.4-1.8-0.5-3.2-1.8-4s-0.9-1.5-0.5-2.4c0.8,0.5,1.6,0.8,2.5,0.7c0.1,0.8,0.2,1.6,0.4,2.6c0.3-1.2,0.2-2.4,0.5-3.5
	c0.1,0,0.2,0.1,0.3,0.2c1.5,1.2,3,2.4,5.1,2.1C50.5,56.8,50.3,57.8,50.1,58.8z"/>
<path class="st17" d="M79.6,82.4c-1.2,0.1-1.2,0.1-1.5-1c-0.2-0.8-0.4-1.7-0.6-2.5c0,1,0,1.9,0,2.9c0,0.5-0.1,0.7-0.6,0.7
	c-1.6,0-1.3,0.1-1.3-1.3c0-2.2,0-4.5,0-6.7c0-0.6,0.1-0.8,0.8-0.8c1.3,0,1.3,0,1.6,1.2c0.2,0.7,0.4,1.5,0.6,2.2c0-0.9,0-1.9,0-2.8
	s0.6-0.5,1-0.5s0.9-0.2,0.9,0.6c-0.1,0.8,0,1.7-0.1,2.5c-0.3,0-0.3,0.2-0.3,0.4C79.7,78.9,79.1,80.6,79.6,82.4z"/>
<path class="st12" d="M51.9,52.3c0.1-1.5,0.1-2.9,0.2-4.4c0.4,0,0.8,0.1,1.2,0c0.5-0.1,0.7-0.2,0.4-0.8c-0.6-1-1.8-0.8-2.7-1.1
	c-0.4-0.1-0.9,0-1.3-0.3c-0.4-0.4-1-0.5-1.5-0.6c0-0.1,0.1-0.3,0.1-0.3c0.9-0.2,1.6-1.2,2.7-0.6c0.2,0.1,0.5,0.1,0.8,0
	c0.4-0.2,0.8,0,1.2,0.1c0.7,0.3,1.3,1,2.1,1c0.4,0.6,1.1,1,1.7,1.4c0,0.3-0.1,0.6,0.3,0.7l0,0c0,0.2,0,0.4-0.2,0.5
	c-0.7,0.1-0.5,0.6-0.5,1.1l0,0c-0.7,0.1-1,0.9-0.8,1.1c0.7,0.7,0.3,1.5,0.3,2.2c-0.3,0.2-0.6,0.4-0.9,0.4
	C54,52.7,52.9,52.6,51.9,52.3z"/>
<path class="st18" d="M58.8,59.8c0.2,2.7,0,5.5,0,8.2c-0.2,0.1-0.4,0.1-0.6,0.2c-1.5,0.6-3.3,0.2-4.3-1c-0.5-0.6-0.9-1.3-1.2-2.1
	c0-0.1,0-0.2,0-0.3c-0.3-0.8-0.2-1.1,0.8-0.9c0.6,0.1,1.4,0.3,1.7-0.7c0.1-0.3,0.5-0.4,0.8-0.3c-0.2,0.7-0.4,1.4-1.3,1.4
	c-1.2,0-1.4,0.5-0.9,1.5c0.6,1.3,1.3,1.6,2.7,1.3c1.3-0.3,1.3-0.3,1.3-1.7c0-0.7,0-1.4,0-2.2c0-0.3,0-0.6,0.2-0.8s0.3-0.6,0.1-0.8
	c-0.3-0.3-0.5,0.2-0.7,0.3c-0.4,0.3-0.6,1.1-1.3,0.9c0.2-0.5,0.4-1,0.8-1.5c0.4-0.4,0.5-0.8-0.1-1.2c-1.1-0.8-2.1-1.7-3.6-1.2
	c-0.5,0.2-1,0.1-1.5,0.2c0-0.7,0-1.4,0-2.1c0.5-0.1,0.4-0.9,1-0.9c1,0.6,2,0.5,3-0.1c0.3-0.2,0.5-0.4,0.9-0.4c0,0.3-0.2,0.4-0.4,0.5
	c-0.6,0.5-0.7,1.4-0.2,2C56.8,59,57.8,59.4,58.8,59.8z"/>
<path class="st19" d="M30.9,60c0.8-0.1,1.1,0.6,1.7,0.8c0.2,0.1,0.1,0.6,0.4,0.5c0.8-0.3,1.5,0.2,2.2,0c0.1,0,0.2-0.1,0.2-0.2
	c-0.2-1.1,1.2-2.2,0.2-3.4c-0.3-0.3-0.1-0.7-0.1-1.1c0.6,0.4,0.7,1,0.9,1.6c0.1,0.3,0,0.8,0.5,0.9c0,0.1,0,0.1,0,0.2
	c0,0.8,0.2,1.5,1,1.7c0,2.6,0,5.2,0,7.9c-0.4,0-0.3-0.4-0.6-0.5c-0.8-0.3-1.5-0.8-2.1-1.4c-0.5-0.6-0.5-0.7,0.3-0.9
	c0.9-0.3,1-0.7,0.4-1.4c-0.5-0.5-1.2-0.7-1.7-1.2c-0.9-1.1-2.1-1.6-3.2-2.3C30.7,60.7,30.8,60.4,30.9,60z"/>
<path class="st16" d="M39.3,76.8c-0.3,0.7-0.4,1.3-0.2,2.2c0.3,0.9,0.1,2,0.1,3c0,0.4-0.1,0.5-0.5,0.5c-1.4,0.1-1.4,0.1-1.4-1.3
	c0-0.6,0-1.3,0-1.9c0-0.3,0-0.8-0.5-0.8s-0.3,0.5-0.3,0.7c0,0.9,0,1.7,0,2.6c0,0.5-0.2,0.6-0.6,0.6c-1.3,0-1.3,0-1.3-1.2
	c0-2.2,0-4.4,0-6.6c0.4,0,0.7,0.2,1,0.5c0.2,0.3,0.5,0.5,0.9,0.5c0,0.2,0,0.5,0,0.7s-0.2,0.6,0.3,0.6c0.3,0,0.6-0.1,0.7-0.4
	c0.1-0.2,0-0.3,0.1-0.5C38.3,75.8,38.6,76.6,39.3,76.8z"/>
<path class="st17" d="M69.9,77.8c-0.1-0.9-0.1-1.7,0.1-2.6c0.2-1,1-1.6,2.2-1.6c1.4,0,2.2,0.4,2.4,1.5c0.3,2,0.2,3.9,0.1,5.9
	c-0.1,0.9-0.8,1.4-1.7,1.5c-0.7,0.1-1.4,0.2-2.1-0.3c0.1-0.2,0.1-0.4,0.2-0.5c0.5-0.4,0-1.2,0.7-1.5c0,0.4,0.3,0.5,0.6,0.5
	c0.3,0,0.4-0.3,0.4-0.6c0-1.5,0-2.9,0-4.4c0-0.3,0-0.6-0.4-0.7c-0.5,0-0.5,0.3-0.5,0.6c0,0.7,0,1.3-0.1,2
	C71.1,77.7,70.5,78,69.9,77.8z"/>
<path class="st20" d="M30.9,45.5c-0.1-2.1-0.2-4.3,0-6.4c0.1,0,0.1,0,0.2,0c1.2,0.7,2.4,1.1,3.7,0.2c0.2-0.1,0.5-0.1,0.5,0.1
	c0.2,0.5,0.5,0.6,1,0.4c0.5-0.2,0.5-0.6,0.5-1.1c0.6,0,1.1,0,1.7,0c0,0.1,0.1,0.2,0.2,0.3c0.1,0.3,0.1,0.6,0.2,0.8
	c-0.4,0-0.8,0-1.2,0c-0.9,0-1,0.1-0.7,1c-0.7,0.2-1.5,0.3-2.2,0.7c-0.2,0.1-0.6,0.3-0.3,0.7c0.2,0.3,0.5,0.2,0.8,0.1
	c0.6-0.3,1.1-0.5,1.8-0.6c-0.7,0.7-1.5,1.3-2.6,1.5c-0.5,0.1-0.7,0.2-0.4,0.7c-0.2,0.3-0.5,0.1-0.7,0.2c-0.2,0-0.5-0.1-0.6,0.1
	C32.4,45.2,31.6,45.3,30.9,45.5z"/>
<path class="st14" d="M56.8,46.7c-0.7-0.4-1.3-0.8-1.7-1.4c-0.2-0.3-0.4-0.7-0.7-0.9c-0.7-0.6-1.2-1.4-2.2-1.5
	c-0.2-0.6-0.6-0.3-0.9-0.3c-0.3,0-0.7,0-1,0c0-0.2,0-0.4-0.1-0.6c-0.3-0.6-0.2-0.9,0.5-0.9c0.3,0,0.7,0,0.8-0.5
	c0.2-0.1,0.3-0.1,0.5-0.2c0.3,0.4,0.5,0.8,0.9,0.1c0.1-0.2,0.2-0.3,0.4-0.4c0.6-0.2,0.8-0.8,0.9-1.3c0.3-0.1,0.7-0.1,1,0
	c0,0.2,0.1,0.3,0.1,0.5c-0.1,0.9,0.3,1.4,0.8,2.1c0.7,0.9,1.7,1.4,2.5,2.2c-0.2,0.3-0.6,0.5-0.5,1c-0.4,0-0.4,0.3-0.5,0.6
	C57.2,45.7,57.2,46.3,56.8,46.7z"/>
<path class="st12" d="M45.3,52.8c0.1-0.9,0.2-1.7,0.3-2.6c1-0.5,2-0.9,2.7-1.8c0.2-0.3,0.5-0.4,0.8-0.2c0.5,0.4,1.1,0.2,1.5-0.2
	c0.4-0.3,0.8-0.4,1.3-0.3c-0.3,2-0.7,4.1-1,6.1c-1.1,0-2.1-0.4-2.9-1.1c-0.5-0.4-1.1-0.5-1.7-0.3C46.1,52.6,45.7,52.7,45.3,52.8z"/>
<path class="st17" d="M52.1,73.7c0.1,0,0.3,0,0.4,0c0.1,0.4,0.1,1.1,0.9,0.8c0,1.9,0,3.7,0,5.6c0,0.3-0.1,0.8,0.4,0.8
	s0.5-0.5,0.5-0.8c0-0.9,0-1.9,0-2.8c0.5,0.5,1.2,0.5,1.9,0.5c0,0.8,0,1.7,0,2.5c0,1.5-0.8,2.2-2.4,2.2c-1.5,0-2.3-0.7-2.3-2.2
	c0-1.8,0-3.5,0-5.3C51.9,74.7,51.9,74.2,52.1,73.7z"/>
<path class="st14" d="M56.1,62.8c-0.3,0-0.7,0-0.8,0.3c-0.3,1-1.1,0.8-1.7,0.7c-1-0.2-1.1,0.1-0.8,0.9c0,0.1,0,0.2,0,0.3
	c-0.4-0.1-0.6-0.5-1-0.3c0-1.9,0-3.7,0-5.6c0.5-0.1,1.1,0,1.5-0.2c1.5-0.5,2.5,0.4,3.6,1.2c0.5,0.4,0.5,0.8,0.1,1.2
	C56.5,61.7,56.3,62.2,56.1,62.8L56.1,62.8z"/>
<path class="st10" d="M52,47.8c-0.5,0-0.9,0-1.3,0.3c-0.4,0.4-1,0.5-1.5,0.2c-0.3-0.2-0.6-0.1-0.8,0.2c-0.7,0.9-1.7,1.3-2.7,1.8
	c0.3-1.7,0.6-3.4,0.8-5.1c0.6,0.4,1.1-0.1,1.7,0c0.5,0.1,1.1,0.2,1.5,0.6c0.4,0.3,0.9,0.2,1.3,0.3c0.9,0.3,2,0.1,2.7,1.1
	c0.4,0.6,0.1,0.7-0.4,0.8c-0.4,0-0.8,0-1.2,0c0-0.1,0-0.3,0.1-0.4C52.1,47.6,52.1,47.7,52,47.8z"/>
<path class="st12" d="M68.2,59.1c0,0.1,0,0.3,0,0.4c-0.5-0.1-0.6,0.3-0.8,0.6c-0.2,0.5-0.4,1-0.6,1.5s-0.5,0.6-0.9,0.3
	c-0.7-0.5-1.2-0.2-1.8,0.2c-0.2,0.1-0.5,0.1-0.7,0.2c0.1-0.3,0.1-0.5,0.1-0.8s0.2-0.7-0.1-0.9s-0.6,0.2-0.8,0.4
	c-0.5,0.4-0.7,1.1-1.4,1.4c-0.2-1.6,0-3.2-0.1-4.8c0-0.4,0.2-0.5,0.5-0.5c0.7,0,1.5,0,2.2,0c0.3,1.2-0.6,2-1.1,3
	c0.4,0.1,0.5-0.1,0.6-0.2c0.6-0.7,1.6-1,2.3-0.7c0.2,0.1,0.2,0.2,0.2,0.3c0,0.4,0.1,0.7,0.5,0.6c0.3-0.1,0.2-0.5,0.2-0.8
	c0-0.7,0-1.2,0.9-0.9C67.9,58.6,67.9,59,68.2,59.1z"/>
<path class="st20" d="M30.9,61c1.1,0.7,2.4,1.2,3.2,2.3c0.4,0.5,1.2,0.7,1.7,1.2c0.6,0.7,0.5,1.1-0.4,1.4c-0.8,0.2-0.8,0.4-0.3,0.9
	c0.6,0.6,1.3,1.1,2.1,1.4c0.3,0.1,0.2,0.6,0.6,0.5c0,0.5,0,1,0,1.6c-0.4-0.1-0.4-0.4-0.5-0.7c-0.4-0.8-0.8-1.5-1.9-1.4
	c-0.2-0.2-0.4-0.4-0.5-0.6c-0.9-1.7-2.5-2.4-4.1-3.1C30.9,63.5,30.9,62.3,30.9,61z"/>
<path class="st18" d="M64,62.1c0.6-0.4,1.1-0.7,1.8-0.2c0.4,0.3,0.7,0.2,0.9-0.3c0.2-0.5,0.4-1,0.6-1.5c0.2-0.3,0.3-0.7,0.8-0.6
	c0,1.5,0.1,3.1,0,4.6c-0.4,0.2-0.7,0.6-0.9,1v0.1l-0.1,0.1c0,0-0.1,0-0.1,0.1l-0.1,0.1h-0.1c-0.7-0.1-1,0.7-1.7,0.7
	c-0.2,0.1-0.3,0.2-0.5,0.3c-0.1-0.4,0.3-0.6,0.2-1.1c-0.9,0.8-0.7-0.2-1-0.5c-0.8-0.8-0.8-1.1,0-1.9C64.4,62.8,64.5,62.5,64,62.1z"
	/>
<path class="st18" d="M31.4,78.4c-0.4,0.1-0.3,0.4-0.3,0.7c0,0.9,0,1.8,0,2.7c0,0.5-0.1,0.7-0.6,0.7c-1.3,0-1.3,0-1.3-1.2
	c0-2.1,0-4.2,0-6.3c0-1.3,0-1.3,1.4-1.1c0,0.6-0.1,1.2,0.5,1.6c0.1,0.5-0.2,1,0.2,1.5C31.4,77.4,31.5,77.9,31.4,78.4z"/>
<path class="st16" d="M51.8,64.7c0.4-0.1,0.7,0.3,1,0.3c0.2,0.8,0.7,1.5,1.2,2.1c1,1.2,2.8,1.6,4.3,1c0.2-0.1,0.4-0.1,0.6-0.2
	c0,0.9,0,1.7,0,2.6c0.1,0.8-0.2,1.1-1,1c-0.2,0-0.3-0.1-0.5-0.1c-0.8-1.1-2-1.8-3.2-2.4c0-0.3-0.1-0.4-0.4-0.3c-0.1,0-0.3,0-0.4,0
	c-0.1-0.3-0.3-0.3-0.6-0.3c-0.2,0-0.3,0-0.5,0c0-0.3-0.3-0.3-0.5-0.3c0-0.2,0-0.3,0-0.5c0.7-0.3,0.7-1.2,0-1.9
	C51.8,65.3,51.8,65,51.8,64.7z"/>
<path class="st18" d="M38.2,50.7c-0.3-1.1-0.2-2.2-0.7-3.3c0.3,0.1,0.1,0.4,0.1,0.5c-0.2,0-0.3,0-0.5,0c-1.4-0.3-1.4-0.3-1.7,1.1
	c-0.1,0.4,0.3,1-0.3,1.2c-0.5,0.2-0.9,0.2-1.4,0.2c-0.2,0-0.3,0-0.5,0c-0.1-0.4-0.3-0.9-0.3-1.3c-0.1-0.5,0.1-0.9,0.6-0.7
	c1.2,0.4,1.5-0.2,1.5-1.2c0-0.1,0-0.1,0-0.2c0.4-0.2,0.3-1,1-0.9c0.7,1,0.7,1,1.7,0.3c0.2-0.2,0.5-0.2,0.7-0.2
	c0.3,1.1,1.1,0.6,1.8,0.5c0,0.2-0.1,0.3-0.3,0.4c-0.8,0.1-0.9,0.6-0.6,1.2c0.1,0.1,0.1,0.2,0.1,0.3c0.1,0.2,0.1,0.5-0.1,0.7
	c-0.3,0.2-0.4-0.1-0.5-0.3c-0.1-0.1-0.2-0.2-0.4-0.1c-0.2,0.1,0,0.2,0,0.4c0.4,1,0.4,1,1.3,0.4c0.3-0.2,0.6-0.7,0.9,0
	c0,0.4-0.1,0.9-0.3,1.2C39.5,50.5,38.8,51,38.2,50.7z"/>
<path class="st10" d="M43.4,47c0.5,2.1,0.7,4.2,1,6.3c-0.5,0-1,0.1-1.5,0c-1-0.1-1.9-0.7-2.2-1.5c-0.3-0.7,0-1.7,0.8-2.2
	c0.4-0.3,0.3-0.6,0.3-1c0.2-0.3,0.4-0.6,0.6-0.8C42.8,47.7,42.9,47.2,43.4,47z"/>
<path class="st19" d="M35.8,46c-0.7-0.2-0.6,0.7-1,0.9c-0.7,0.5-1.6,0.8-2.4,0.5c-0.6-0.2-1-0.1-1.5,0.1c-0.1-0.6-0.1-1.3,0-1.9
	c0.7-0.2,1.5-0.2,1.8-1.1c0.1-0.2,0.4-0.1,0.6-0.1c-0.2,0.5-0.3,1-0.5,1.5c-0.1,0.3-0.4,0.7,0,1c0.3,0.2,0.7,0.1,1-0.1
	c1-0.7,2-1.4,3-2.2c0.8-0.6,0.8-0.7,0-1.4c0.2-0.4,0.7-0.4,1.1-0.5c0.5,0.1,0.8-0.1,1.1-0.5c0.2,0,0.5,0,0.7,0
	c-0.1,0.7,0.7,0.4,0.9,0.7c-0.6,0.6-1,1.3-1.7,1.7c-0.4,0.2-0.6,0.6-0.6,1.1C37.4,45.9,36.7,46.1,35.8,46z"/>
<path class="st7" d="M59,78.9c0,0.5,0,0.9,0,1.4c0,0.3,0.1,0.6,0.5,0.6c0.3,0,0.4-0.3,0.4-0.6c0-0.4,0-0.8,0-1.1
	c0-0.4,0.2-0.5,0.6-0.5c1.4-0.1,1.4-0.1,1.4,1.3c0,1.7-0.7,2.5-2.2,2.6c-1.8,0.1-2.6-0.8-2.6-2.7c0.1,0,0.3-0.1,0.3-0.2
	C57.6,78.7,58.4,78.9,59,78.9z"/>
<path class="st17" d="M68.9,74.5c0,2.4,0,4.8,0,7.2c0,0.7-0.4,0.7-0.9,0.7c-0.4-0.1-1.1,0.4-1.1-0.6c0.1-2.2,0-4.3,0-6.5
	c0.1,0,0.2-0.3,0.3-0.2c0.5,0.9,0.7,0.4,0.9-0.2C68.3,74.6,68.5,74.5,68.9,74.5z"/>
<path class="st17" d="M66.3,74.6c0.1,0.5,0.1,0.9-0.5,0.9s-0.5,0.3-0.5,0.7c0,1.9,0,3.7,0,5.6c0,0.7-0.3,0.8-0.8,0.7
	c-0.5-0.1-1.2,0.3-1.1-0.7c0.1-1.9,0-3.8,0.1-5.8h0.1h0.1c0.8-0.1,1.2-0.6,1.4-1.3c0.1,0,0.1,0,0.2,0C65.4,74.6,65.9,74.6,66.3,74.6
	z"/>
<path class="st10" d="M44.5,74.5c0.4,0.4,0.4,1,0.4,1.6c0,1.4,0,2.8,0,4.3c0,1.2-0.3,1.7-1.3,2.1c-1.1,0.4-2.1,0.2-2.9-0.6
	c0,0,0.1,0,0.1-0.1c0.5,0.2,1,0.1,1.5,0.1c0.7-0.1,1-0.4,0.6-1.1c0.4-1.7,0-3.4,0.2-5C43.7,75.4,44.1,74.9,44.5,74.5z"/>
<path class="st15" d="M38.2,45.7c0-0.5,0.1-0.8,0.6-1.1c0.7-0.4,1.2-1.2,1.7-1.7c0.3,0,0.5-0.1,0.7-0.2c0.5,0,1,0,1.5,0
	c0.1,0.8,0.3,1.6,0.4,2.5C42,45.5,41,46.3,40,46.8c-0.7,0.1-1.5,0.6-1.8-0.5C38.2,46,38.2,45.8,38.2,45.7z"/>
<path class="st16" d="M58.4,43.6c-0.8-0.8-1.7-1.2-2.5-2.2c-0.5-0.7-0.9-1.2-0.8-2.1c0-0.2,0-0.3-0.1-0.5c1.1,0,2.2,0,3.4,0
	c0.3,0,0.4,0.1,0.4,0.4c0,1.4,0,2.9-0.1,4.3C58.6,43.6,58.5,43.6,58.4,43.6z"/>
<path class="st14" d="M45.3,52.8c0.4-0.1,0.7-0.2,1.1-0.3c0.6-0.2,1.2-0.1,1.7,0.3c0.8,0.7,1.8,1.1,2.9,1.1
	c-0.1,0.6-0.2,1.3-0.3,1.9c-2.1,0.3-3.6-1-5.1-2.1c-0.1-0.1-0.2-0.1-0.3-0.2C45.3,53.3,45.3,53.1,45.3,52.8z"/>
<path class="st14" d="M40,46.7c1-0.5,2-1.2,3.1-1.6c0.1,0.5,0.3,1,0.2,1.6c-0.5,0.2-0.9,0.5-1,1.1c-0.2,0.3-0.4,0.6-0.6,0.8
	c-0.7,0-0.6,0.9-1.2,1.1c-0.3-0.7-0.7-0.2-0.9,0c-0.9,0.6-0.9,0.6-1.3-0.4c-0.1-0.1-0.2-0.2,0-0.4c0.1-0.1,0.3-0.1,0.4,0.1
	c0.2,0.2,0.3,0.5,0.5,0.3s0.1-0.4,0.1-0.7c0-0.1-0.1-0.2-0.1-0.3c-0.3-0.6-0.2-1.1,0.6-1.2C39.9,47,40,46.9,40,46.7z"/>
<path class="st14" d="M64,62.1c0.5,0.4,0.4,0.7,0,1.1c-0.8,0.8-0.8,1,0,1.9c0.3,0.3,0.1,1.3,1,0.5c0.1,0.5-0.4,0.7-0.2,1.1
	c-0.8,0.6-1.8,0.6-2.8,1c1-1.1,1-1.1-0.4-1.4c-0.1,0-0.2,0-0.3,0c-0.2-0.7-0.2-1.4-0.2-2.1c0.2,0,0.4-0.1,0.4-0.3
	c0.5-0.6,1.4-0.8,1.8-1.6C63.5,62.2,63.8,62.1,64,62.1z"/>
<path class="st16" d="M31.1,75.4c-0.6-0.4-0.5-1-0.5-1.6c0.2,0,0.3,0,0.5,0c2.3,0,2.9,0.6,2.8,2.9c-0.1,1.5-0.7,2-2.5,1.9
	c0.1-0.5,0-1.1-0.1-1.6c0.6,0,0.8-0.4,0.8-1C32,75.3,31.5,75.3,31.1,75.4z"/>
<path class="st20" d="M58.8,59.8c-1-0.4-1.9-0.9-2.7-1.6c-0.6-0.6-0.5-1.5,0.2-2c0.2-0.2,0.4-0.3,0.4-0.5c0.7-0.1,1.3-0.8,2.1-0.7
	C58.8,56.6,58.8,58.2,58.8,59.8z"/>
<path class="st16" d="M61.4,66.3c0.1,0,0.2,0,0.3,0c1.3,0.3,1.3,0.3,0.4,1.4c1-0.4,2-0.4,2.7-1.1c0.2-0.1,0.3-0.2,0.5-0.3
	C65,67.1,65,68,65,68.9c0,0.6-0.1,1.3-0.4,1.9C62.8,69.8,61.8,68.3,61.4,66.3z"/>
<path class="st17" d="M50.5,76.1c0.1,1.4,0.1,2.9,0,4.3s-0.6,1.9-2.1,2c-0.4,0-0.9,0-1.3,0c-0.1-0.6,0.1-1.2,0.5-1.6
	c0.4,0,0.7,0,1-0.3c0.8,0,0.8-0.7,1-1.2c0.2-0.2,0.2-0.5,0.1-0.7C49.7,77.6,50,76.8,50.5,76.1z"/>
<path class="st16" d="M48,71c-0.7-0.3-1.3-0.1-1.9,0.1c-0.5,0.1-0.8,0-1.1-0.4c-0.2-0.4-0.3-0.9,0.2-1.2c0.6-0.4,0.8-0.8,0.2-1.4
	c-0.2-0.2-0.2-0.4,0-0.6c0.2-0.1,0.4-0.1,0.5,0.1c0.7,1,1.7,0.9,2.6,0.8C48.4,69.3,48.3,70.1,48,71z"/>
<path class="st19" d="M33,50.4c0.2,0,0.3,0,0.5,0c0.5,0,1,0,1.4-0.2c0.6-0.2,0.2-0.8,0.3-1.2c0.3-1.3,0.3-1.3,1.7-1.1
	c0.2,0,0.3,0,0.5,0c0,0.1,0,0.2,0,0.3c-0.3,0.1-0.8-0.2-0.8,0.2c0.1,0.6,0,1.4,0.8,1.7c0,0.2,0,0.5,0,0.7c-0.4,0-0.6-0.3-0.9-0.6
	c-0.3-0.2-0.5-0.7-1-0.2c-0.4,0.4-0.3,0.7,0,1c0.2,0.2,0.4,0.5,0.4,0.8c-0.1-0.1-0.3-0.1-0.4-0.2c-0.6-0.5-1-0.4-1.2,0.4
	c-0.1,0.2,0,0.5,0,0.7c-0.4-0.3-0.7-0.6-0.5-1.2c0.2-0.9-0.7-1-1.3-1.1c-0.6-0.1-1.3,0-1.9,0c-0.1-0.3-0.1-0.7,0-1
	C31.7,49.5,32.2,50.4,33,50.4z"/>
<path class="st20" d="M36.9,59.1c-0.5-0.1-0.4-0.6-0.5-0.9c-0.2-0.6-0.3-1.2-0.9-1.6c0-0.5,0-0.9,0-1.4s0.1-1-0.5-1.3
	c0-0.3,0-0.7,0-1c0.1,0,0.2,0,0.4,0c0.7,0.6,1.6,0.6,2.5,0.7C38,54.3,38,55,38,55.7c-1,0.5-1.4,1.2-1.2,2.2
	C36.7,58.4,36.8,58.8,36.9,59.1z"/>
<path class="st14" d="M51.9,52.3c1,0.3,2,0.4,3.1,0.4c0.4,0,0.6-0.2,0.9-0.4c0.4,0.4,0.6,0.9,0.5,1.4c0,0.3-0.1,0.6,0.3,0.7
	c0,0.1,0,0.1,0,0.2c-0.4,0-0.8,0-1.2,0c-0.2,0-0.4,0-0.5,0c-0.1-0.4-0.4-0.3-0.7-0.3c-0.8,0-1.7,0.1-2.5,0.1
	C51.9,53.7,51.9,53,51.9,52.3z"/>
<path class="st10" d="M75,38.7c0.2,1.3-0.8,1.9-1.5,2.7c-0.4,0.5-0.7,1.1-1.5,1.1c0-1.1,0-2.1,0-3.2c0-0.5,0.2-0.6,0.7-0.6
	C73.4,38.7,74.2,38.7,75,38.7z"/>
<path class="st13" d="M45.9,74.3c-0.1-0.3-0.1-0.6,0.3-0.6c0.8,0,1.5-0.1,2.3,0.1c0,0.2,0,0.5,0,0.7c-0.1,0.3-0.1,0.6-0.2,0.8
	c-0.5-0.1-0.8,0.1-0.7,0.7c0,1.1,0,2.1,0,3.2c-0.2-0.2-0.5-0.3-0.5-0.7c0.1-0.9-0.4-1.2-1.2-1.1c-0.2-0.3-0.2-0.7,0-1
	c0.4,0.2,0.9,0.3,0.9-0.3C46.8,75.4,46.6,74.7,45.9,74.3z"/>
<path class="st14" d="M36.5,71.6c-1.7,0.1-3.5,0.1-5.2,0c-0.9,0-0.4-0.7-0.4-1.1c0.9-0.1,1.7,0.3,2.5,0.4c0.5,0,1.3,0.4,1.4-0.2
	c0.1-0.6-0.7-0.6-1.2-0.7c0.2-0.3,0.7-0.2,0.7-0.7c0.4-0.1,0.8-0.5,1.2-0.4l0,0C35.7,69.8,36.5,70.5,36.5,71.6z"/>
<path class="st10" d="M67.5,58.5c-0.9-0.3-1,0.2-0.9,0.9c0,0.3,0.2,0.7-0.2,0.8c-0.4,0.1-0.5-0.2-0.5-0.6c0-0.2-0.1-0.3-0.2-0.3
	c-0.8-0.3-1.7,0-2.3,0.7c-0.1,0.1-0.2,0.3-0.6,0.2c0.4-1,1.4-1.8,1.1-3c0.8,0,1.6,0,2.5,0c0,0.3,0.3,0.5,0.5,0.6
	C67.1,58,67.4,58.1,67.5,58.5z"/>
<path class="st20" d="M49.4,63.3c-0.9,0-1.6,0-2.3-0.8c-0.6-0.7-0.4-1.7,0.5-2c0.7-0.2,1.5-0.2,2.2-0.2
	C49.8,61.4,49.6,62.3,49.4,63.3z"/>
<path class="st18" d="M48.2,45.1c-0.6-0.1-1.1,0.4-1.7,0c-0.1-0.4,0.2-0.7,0.2-1c1.6,0.1,3.1-0.3,4.5-0.9c0.4,0.1,0.5-0.4,0.9-0.3
	c1,0.1,1.6,0.9,2.2,1.5c0.3,0.3,0.5,0.6,0.7,0.9c-0.8,0-1.4-0.7-2.1-1c-0.4-0.2-0.7-0.3-1.2-0.1c-0.2,0.1-0.6,0.1-0.8,0
	c-1.1-0.6-1.8,0.4-2.7,0.6C48.3,44.8,48.3,45,48.2,45.1z"/>
<path class="st11" d="M54.2,69.1c1.2,0.7,2.4,1.3,3.2,2.4c0,0-0.1,0.1,0,0.1c-1.1,0-2.1,0-3.2,0v-0.1c0.2-0.5-0.2-0.7-0.5-1
	c-0.7-0.6-1.1-1.3-1.3-2.2c0.2,0,0.3,0,0.5,0c0.1,0.4,0.3,0.4,0.6,0.3c0.1,0,0.3,0,0.4,0C53.8,69,54,69.1,54.2,69.1z"/>
<path class="st11" d="M69.9,77.8c0.6,0.2,1.2-0.1,1.8,0c0.1,0.8,0.1,1.6,0,2.4c-0.7,0.3-0.2,1.1-0.7,1.5c-0.1,0.1-0.1,0.3-0.2,0.5
	c-0.6-0.4-0.9-1-1-1.6C69.8,79.6,69.9,78.7,69.9,77.8z"/>
<path class="st19" d="M39,39.9c-0.1-0.3-0.1-0.6-0.2-0.8c0-0.1,0-0.2,0-0.3c0.2,0,0.5,0,0.7,0c0.2,0.4,0.8,0.6,0.9,1.1
	c-0.5,0.1-0.8,0.4-0.8,0.9s0.5,0.3,0.8,0.4c0.1,0,0.2,0.1,0.3,0.2c-1.2,0.2-2.4,0.4-3.6,0.6c-0.6,0.1-1.2,0.3-1.8,0.6
	c-0.3,0.1-0.6,0.2-0.8-0.1c-0.3-0.4,0.1-0.5,0.3-0.7c0.7-0.4,1.5-0.5,2.2-0.7c0.7,0.1,1.3-0.3,1.9-0.4C39.5,40.3,39.3,40.1,39,39.9z
	"/>
<path class="st10" d="M46,77.4c0.8-0.1,1.3,0.2,1.2,1.1c0,0.3,0.2,0.5,0.5,0.7c0,0.5,0,1,0,1.4c-1,0.1-1.4,0.5-1.6,1.8
	c-0.2,0-0.2-0.1-0.2-0.3C45.9,80.6,45.8,79,46,77.4z"/>
<path class="st20" d="M33,50.4c-0.8,0-1.3-0.8-2.1-0.9c0-0.2,0-0.5,0-0.7c0.3-0.1,0.8,0.2,0.8-0.3c0-0.4-0.3-0.6-0.8-0.6h-0.1
	c0-0.2,0-0.3,0-0.5c0.5-0.2,0.9-0.3,1.5-0.1c0.8,0.3,1.6,0,2.4-0.5c0,0.1,0,0.1,0,0.2c0,1-0.2,1.6-1.5,1.2c-0.6-0.2-0.7,0.3-0.6,0.7
	C32.8,49.5,32.9,49.9,33,50.4z"/>
<path class="st18" d="M35.5,68.9c-0.5-0.1-0.8,0.3-1.2,0.4c0-0.5,0-1.1-0.3-1.4c-0.9-0.8-1.8-1.7-3-2.1c-0.1-0.3-0.1-0.7,0-1
	c1.7,0.6,3.2,1.4,4.1,3.1c0.1,0.2,0.3,0.4,0.5,0.6C35.5,68.5,35.5,68.7,35.5,68.9z"/>
<path class="st15" d="M47.3,40.4c0.2-1.6,0.2-1.6,1.7-1.6c1,0,1.9,0,2.9,0c-0.6,1-1.4,1.7-2.6,1.6C48.7,40.4,48,40.4,47.3,40.4z"/>
<path class="st19" d="M30.9,69.8c0-1.1,0-2.2,0-3.3c1,0.2,1.7,0.9,2.1,1.8c0.3,0.8-0.2,1.5-1.1,1.5C31.5,69.8,31.2,69.8,30.9,69.8z"
	/>
<path class="st15" d="M54.4,76.1c0-0.4,0-0.8,0-1.2c0-1.1,0.4-1.4,1.5-1.2c0.3,0.1,0.4,0.2,0.3,0.5c0,0.8,0,1.5,0,2.3
	C55.6,76.6,54.9,77,54.4,76.1z"/>
<path class="st20" d="M30.9,69.8c0.3,0,0.6,0,1,0c0.9,0,1.5-0.7,1.1-1.5c-0.4-0.9-1-1.6-2.1-1.8c0-0.2,0-0.5,0-0.7
	c1.2,0.4,2.1,1.3,3,2.1c0.4,0.3,0.4,0.9,0.3,1.4c0,0.5-0.5,0.4-0.7,0.7c-0.3,0.4-0.6,0.5-1.1,0.4s-1-0.3-1.5-0.2
	C30.8,70,30.8,69.9,30.9,69.8z"/>
<path class="st15" d="M57,47.9c0.2-0.1,0.1-0.3,0.2-0.5c0.6-0.3,0.9-1.1,1.6-1.1c0.2,0.9,0.1,1.9,0,2.8c-0.3,0-0.5,0.2-0.8,0.4
	c-1.2,0.7-1.2,0.7-1.2-0.7C56.9,48.5,56.9,48.2,57,47.9z"/>
<path class="st12" d="M59.9,73.7c1.3,0.1,1.8,0.6,2,1.9c-0.6-0.7-1.3-0.1-1.9-0.2c-0.6-0.4-0.8-0.1-0.9,0.5c-0.8,0.4-1,1.3-1.9,1.6
	c0-0.4,0-0.7,0-1.1C58.6,75.9,59,74.6,59.9,73.7z"/>
<path class="st10" d="M64.7,70.8c0.3-0.6,0.4-1.2,0.4-1.9c0-0.9,0-1.8,0.2-2.7c0.6-0.1,1-0.8,1.7-0.7c0.4,0.6-0.1,1.1-0.4,1.5
	c-0.7,1-0.9,2.1-0.9,3.2c0,0.3,0,0.6,0,1C65.2,71.2,64.9,71.1,64.7,70.8z"/>
<path class="st19" d="M36.9,38.7c0,0.4,0,0.9-0.5,1.1c-0.5,0.2-0.8,0.1-1-0.4c-0.1-0.2-0.4-0.2-0.5-0.1c-1.3,0.9-2.5,0.4-3.7-0.2
	c0,0-0.1,0-0.2,0c-0.1-0.4,0.2-0.3,0.4-0.3C33.1,38.7,35,38.7,36.9,38.7z"/>
<path class="st14" d="M37.1,41.9c1.2-0.2,2.4-0.4,3.6-0.6c0.6,0,1.2,0,1.7,0c0,0.1,0,0.2,0,0.3c-1,0-2,0-2.8,0.5c-0.2,0-0.5,0-0.7,0
	c-0.4,0-0.9-0.1-1.1,0.5c-0.4,0.1-0.8,0.1-1.1,0.5c-0.2,0-0.3,0.1-0.5,0.1s-0.3,0-0.4,0.2c-0.6,0.2-1.3,0.5-1.9,0.7
	c-0.3-0.5,0-0.6,0.4-0.7C35.5,43.2,36.3,42.6,37.1,41.9z"/>
<path class="st14" d="M43,80.7c0.4,0.7,0.1,1-0.6,1.1c-0.5,0-1,0.1-1.5-0.1c0-0.4,0.7,0,0.5-0.5c-0.1-0.3,0-0.7-0.4-0.8
	c-0.6-0.1-0.3,0.5-0.6,0.7c-0.4-1.2-0.1-2.3-0.1-3.5c0.1-0.1,0.1-0.1,0.2-0.2c0.4,0,0.3,0.4,0.5,0.5c-0.1,1.1,0.4,1.9,1.2,2.6
	C42.3,81.1,42.7,80.8,43,80.7z"/>
<path class="st12" d="M40.5,49.7c0.6-0.2,0.5-1.1,1.2-1.1c0,0.4,0.1,0.7-0.3,1c-0.7,0.6-1,1.5-0.8,2.2c0.3,0.8,1.2,1.4,2.2,1.5
	c0.5,0.1,1,0,1.5,0c0,0.4,0.1,0.7,0.1,1.1c-0.9,0-1.7-0.2-2.5-0.7c-0.8-0.2-1-1.2-1.7-1.4c0-0.3,0-0.6,0-0.9c0.2-0.2-0.1-0.3,0-0.5
	C40.4,50.5,40.5,50.1,40.5,49.7z"/>
<path class="st20" d="M58.8,50.2c0.1,0.5,0.1,0.9,0,1.4c-0.4,0.9-0.6,1.8-0.5,2.8c-0.4,0-0.7,0-1.1,0c-0.1-1.1-0.5-2.2-0.7-3.3
	c0.4,0,0.3,0.3,0.4,0.6c0.1,0.3,0.1,0.7,0.6,0.6c0.4-0.1,0.3-0.4,0.4-0.7C58,51,58.1,50.4,58.8,50.2z"/>
<path class="st10" d="M40.9,78c-0.2-0.1-0.2-0.5-0.5-0.5c-0.1,0-0.1,0-0.2,0c0-0.2,0-0.5,0-0.7c0.4-0.4,1-0.7,1-1.4
	c0.3-0.5,0.6-1.1,0.7-1.7c0.5,0,1-0.2,1.5,0.1c-0.2,0.3-0.4,0.6-0.8,0.6c-0.4,0-0.7,0.2-0.6,0.6c0,0.3-0.2,0.5-0.3,0.7
	c-0.3,0.5-0.1,0.6,0.4,0.6c0.1,0.7,0.1,1.3,0,1.9C41.6,78.1,41.3,78,40.9,78z"/>
<path class="st18" d="M51.4,40.6c-0.1,0.5-0.5,0.5-0.8,0.5c-0.7,0-0.9,0.3-0.5,0.9c0.1,0.2,0.1,0.4,0.1,0.6
	c-0.2,0.2-0.5,0.1-0.7,0.2c0-0.3-0.2-0.5-0.5-0.6c-0.6-0.1-1.3-0.1-1.9-0.2c0.1-0.4,0.1-0.8,0.2-1.2C48.6,40.7,50,40.9,51.4,40.6z"
	/>
<path class="st17" d="M57.2,77.5c0.8-0.3,1.1-1.2,1.9-1.6c0,1,0,2,0,3c-0.7,0-1.4-0.2-1.5,0.8c0,0.1-0.2,0.2-0.3,0.2
	C57.2,79.1,57.2,78.3,57.2,77.5z"/>
<path class="st15" d="M49.5,42.7c0.2-0.1,0.5,0,0.7-0.2c0.3,0,0.7,0,1,0c0,0.2,0,0.4,0,0.6c-1.4,0.6-2.9,1-4.5,0.9
	c0.1-0.4,0.1-0.7,0.2-1.1C47.7,43,48.6,43.3,49.5,42.7z"/>
<path class="st18" d="M36.9,59.1c-0.1-0.4-0.1-0.7-0.2-1.1c-0.2-1,0.2-1.7,1.2-2.2c0,1.5,0,3,0,4.5c-0.6-0.1-0.5-0.9-1-1.1
	C36.9,59.2,36.9,59.2,36.9,59.1z"/>
<path class="st19" d="M58.8,50.2c-0.6,0.2-0.8,0.8-0.9,1.3c-0.1,0.3,0,0.7-0.4,0.7c-0.4,0.1-0.4-0.4-0.6-0.6
	c-0.1-0.2-0.1-0.5-0.4-0.6c0-0.7,0-1.4,0-2.1l0,0c0.1-0.1,0.2-0.1,0.4-0.2c0,1.4,0,1.4,1.2,0.7c0.2-0.1,0.4-0.4,0.8-0.4
	C58.8,49.5,58.9,49.9,58.8,50.2z"/>
<path class="st16" d="M63.3,62.3c-0.3,0.8-1.2,1-1.8,1.6c-0.1,0-0.3,0-0.4,0c-0.1-0.5-0.1-0.9,0-1.4c0.6-0.3,0.9-1,1.4-1.4
	c0.2-0.2,0.5-0.5,0.8-0.4c0.3,0.2,0.1,0.6,0.1,0.9C63.4,61.8,63.3,62,63.3,62.3z"/>
<path class="st16" d="M51.9,54.4c0.8-0.1,1.7-0.1,2.5-0.1c0.3,0,0.6-0.1,0.7,0.3c0,0.1,0,0.1,0,0.2c-0.4,0.2-0.8,0.4-1.2,0.5
	c-0.5,0.2-0.9,0.3-1.1,0.9c-0.6,0-0.5,0.8-1,0.9C51.7,56.1,51.7,55.3,51.9,54.4z"/>
<path class="st15" d="M36.1,52c0-0.3-0.2-0.6-0.4-0.8c-0.3-0.3-0.4-0.6,0-1c0.5-0.5,0.7,0,1,0.2s0.5,0.6,0.9,0.6
	c0.1,0.6,0.2,1.3,0,1.9c-0.3,0-0.6,0-0.9-0.1C36.5,52.5,36.2,52.3,36.1,52z"/>
<path class="st18" d="M36.5,75.5c-0.4,0-0.6-0.2-0.9-0.5c-0.3-0.3-0.6-0.4-1-0.5c-0.2-0.7,0.1-1,0.8-0.9c0.6,0.1,1.2,0.1,1.7,0.1
	c0,0.5,0,0.9,0.3,1.3c0.2,0.2,0.3,0.4,0,0.5C37.1,75.3,36.8,75.2,36.5,75.5z"/>
<path class="st12" d="M37.5,75.6c0.3-0.1,0.2-0.3,0-0.5c-0.3-0.4-0.3-0.8-0.3-1.3c1.5-0.1,2.1,0.5,2.1,2c0,0.3,0,0.7-0.1,1
	c-0.6-0.1-0.9-1-1.7-0.9C37.5,75.8,37.5,75.7,37.5,75.6z"/>
<path class="st12" d="M48.4,75.3c0.1-0.3,0.1-0.6,0.2-0.8c0.4,0,0.5-0.4,0.9-0.5c1,0.4,1.1,1.2,1,2.1c-0.5,0.7-0.9,1.5-0.7,2.4
	c0,0.2,0.1,0.5-0.1,0.7c0-0.9,0-1.8-0.4-2.6C49.6,74.9,49.4,75.1,48.4,75.3C48.5,75.4,48.4,75.4,48.4,75.3z"/>
<path class="st12" d="M52.8,56.1c0.1-0.5,0.6-0.7,1.1-0.9c0,0.5,0.3,0.6,0.7,0.5c0.7-0.2,1.4-0.3,2.2-0.5c0.4-0.1,0.3-0.4,0.2-0.7
	c0-0.1,0-0.1,0-0.2c0.1,0,0.2,0,0.4,0c0.4,0,0.7,0,1.1,0c0.2,0,0.4,0,0.5,0c0.1,0.2,0.1,0.4,0,0.5c-0.8-0.1-1.4,0.6-2.1,0.7
	c-0.3,0-0.6,0.2-0.9,0.4C54.8,56.6,53.8,56.7,52.8,56.1z"/>
<path class="st15" d="M59.9,73.7c-0.9,0.9-1.4,2.3-2.7,2.8C57.1,74.3,57.9,73.5,59.9,73.7z"/>
<path class="st16" d="M79.6,82.4c-0.4-1.8,0.1-3.5,0.4-5.2c0-0.2,0.1-0.4,0.3-0.4c0,1.7,0,3.4,0,5.1C80.3,82.5,80,82.5,79.6,82.4z"
	/>
<path class="st20" d="M39.9,61.4c0.7,0.2,1,0.7,1.2,1.4c0.3,1.1,0.3,2.2-0.4,3.2C40.4,64.4,40.1,62.9,39.9,61.4z"/>
<path class="st12" d="M65,74.6c-0.1,0-0.1,0-0.2,0c-0.9,0-1,0.8-1.4,1.3h-0.1h-0.1c-0.1-0.3-0.1-0.6-0.5-0.5
	c-0.7,0.1-0.7-0.3-0.6-0.8c0.7,0,1.3-0.1,1.3-0.9c0.7,0,1.4,0,2.1-0.1c0.5,0,0.7,0.2,0.5,0.6C65.9,74.4,65.3,74,65,74.6z"/>
<path class="st19" d="M40.2,50.9c-0.1,0.2,0.2,0.3,0,0.5c-0.9,0.3-0.4,1.1-0.5,1.6c-0.3,0.3-0.7,0.3-1,0.3c-0.2-0.9-0.3-1.8-0.5-2.6
	C38.8,51,39.5,50.5,40.2,50.9z"/>
<path class="st17" d="M60,75.4c0.6,0,1.3-0.5,1.9,0.2c0,0.1,0,0.2,0,0.3c0,1.1-0.5,1.5-1.6,1.2C60,77,60,76.8,60,76.6
	C60,76.2,60,75.8,60,75.4z"/>
<path class="st12" d="M48.6,68c-0.6-0.2-1.3-0.5-1.3-1.2c0-1,0.8-1.7,1.8-1.8C48.9,66,48.7,67,48.6,68z"/>
<path class="st15" d="M42.5,41.3c-0.6,0-1.2,0-1.7,0c-0.1-0.1-0.2-0.1-0.3-0.2c-0.3-0.1-0.8,0.1-0.8-0.4c0-0.4,0.3-0.8,0.8-0.9
	c0.3,0.1,0.7,0.1,1,0.2c0.3,0,0.5-0.3,0.8-0.4C42.3,40.2,42.5,40.7,42.5,41.3z"/>
<path class="st13" d="M42,76.2c-0.5,0-0.7-0.1-0.4-0.6c0.1-0.2,0.3-0.4,0.3-0.7c0-0.4,0.2-0.6,0.6-0.6c0.4,0,0.6-0.3,0.8-0.6
	c0.5,0,0.9,0.2,1.1,0.7c-0.4,0.5-0.8,1-1.4,1.2c-0.2-0.2-0.2-0.6-0.6-0.5C42,75.2,42,75.5,42,75.8C42.1,76,42,76.1,42,76.2z"/>
<path class="st19" d="M58.8,46.4c-0.8,0-1,0.8-1.6,1.1l0,0c0.2-0.9,0.6-1.8,0.7-2.8c-0.1-0.5,0.4-0.7,0.5-1c0.1,0,0.2,0,0.4,0
	C58.8,44.5,58.8,45.4,58.8,46.4z"/>
<path class="st19" d="M51.4,40.6c-1.4,0.3-2.8,0.1-4.2,0.2c0-0.1,0-0.3,0.1-0.4c0.7,0,1.3,0,2,0c1.2,0.1,2-0.6,2.6-1.6
	c0.2,0,0.5,0,0.7,0c-0.2,0.5-0.5,1.1-0.7,1.6C51.7,40.5,51.6,40.6,51.4,40.6z"/>
<path class="st16" d="M42.3,67.7c-0.4,0.8,0,1.6-0.3,2.4c-0.1,0.3-0.2,0.5-0.5,0.6c-0.1-0.9-0.3-1.8-0.4-2.8c0.4-0.3,0.6-1,1.3-0.9
	C42.3,67.2,42.3,67.4,42.3,67.7z"/>
<path class="st12" d="M68.9,74.5c-0.4,0-0.6,0.1-0.7,0.5c-0.2,0.5-0.4,1-0.9,0.2c-0.1-0.2-0.2,0.1-0.3,0.2c0-0.2,0-0.3,0-0.5
	c0-1.2,0-1.1,1.2-1.2C68.9,73.6,69,73.9,68.9,74.5z"/>
<path class="st19" d="M35.5,68.9c0-0.2,0-0.3,0-0.5c1-0.1,1.5,0.6,1.9,1.4c0.1,0.3,0.1,0.6,0.5,0.7c0.1,1.1,0.1,1.1-0.5,1.1
	C37.2,70.3,36.5,69.5,35.5,68.9L35.5,68.9z"/>
<path class="st17" d="M52.3,68.4c0.3,0.8,0.7,1.6,1.3,2.2c0.3,0.3,0.7,0.5,0.5,1c-0.1,0-0.2-0.1-0.3-0.1c-0.7-0.5-1.3-1.2-2.1-1.6
	c0-0.6,0-1.2,0-1.8C52,68,52.2,68,52.3,68.4z"/>
<path class="st16" d="M51.8,69.8c0.8,0.4,1.3,1.1,2.1,1.6c0.1,0.1,0.2,0.1,0.3,0.1v0.1c-0.2,0-0.5,0-0.7,0
	C51.7,71.6,51.7,71.6,51.8,69.8z"/>
<path class="st18" d="M51.9,40.5c0.2-0.5,0.5-1.1,0.7-1.6c0.5-0.1,0.9-0.1,1.4,0c-0.1,0.6-0.2,1.1-0.9,1.3c-0.2,0.1-0.3,0.2-0.4,0.4
	C52.4,41.2,52.2,40.9,51.9,40.5z"/>
<path class="st20" d="M39.7,42.2c0.9-0.6,1.9-0.5,2.8-0.5c0.2,0.2,0.2,0.5,0.1,0.7c-0.5,0.1-1.1-0.3-1.4,0.3
	c-0.2,0.1-0.4,0.2-0.7,0.2C40.3,42.5,39.5,42.9,39.7,42.2z"/>
<path class="st12" d="M54.4,76.1c0.4,0.9,1.1,0.6,1.8,0.4c0,0.5,0,0.9,0,1.4c-0.7,0-1.3,0-1.9-0.5C54.4,76.9,54.4,76.5,54.4,76.1z"
	/>
<path class="st20" d="M49.5,42.7c-0.8,0.6-1.7,0.2-2.6,0.3c0.1-0.3,0.1-0.7,0.2-1c0.6,0.1,1.3,0.1,1.9,0.2
	C49.3,42.2,49.4,42.4,49.5,42.7z"/>
<path class="st18" d="M30.9,70.1c0.5-0.1,1,0.1,1.5,0.2c0.5,0.2,0.9,0,1.1-0.4c0.5,0.1,1.4,0.1,1.2,0.7c-0.1,0.6-0.8,0.2-1.4,0.2
	c-0.9-0.1-1.7-0.5-2.5-0.4C30.9,70.4,30.9,70.2,30.9,70.1z"/>
<path class="st13" d="M67.5,58.5c-0.1-0.4-0.4-0.6-0.7-0.8c-0.3-0.1-0.5-0.2-0.5-0.6h0.1c2-0.1,2-0.1,1.8,1.9
	C67.9,59,67.9,58.6,67.5,58.5z"/>
<path class="st18" d="M35.5,68.9c1,0.6,1.8,1.4,1.9,2.7c-0.3,0-0.6,0.1-0.9,0C36.5,70.5,35.7,69.8,35.5,68.9z"/>
<path class="st16" d="M41.9,73.7c-0.1,0.6-0.4,1.2-0.7,1.7c-0.3-0.1-0.6-0.1-0.9-0.2C40.5,74.2,41,73.8,41.9,73.7z"/>
<path class="st10" d="M45.9,74.3c0.7,0.4,0.9,1.1,0.9,1.8c0,0.6-0.4,0.5-0.9,0.3C45.8,75.7,45.8,75,45.9,74.3z"/>
<path class="st16" d="M46.1,82.4c0.2-1.2,0.6-1.6,1.6-1.8v0.1c-0.5,0.4-0.6,1-0.5,1.6c-0.3,0.1-0.6,0.1-0.9,0
	C46.2,82.4,46.2,82.4,46.1,82.4L46.1,82.4z"/>
<path class="st18" d="M58.8,54.4c-0.2,0-0.4,0-0.5,0c-0.1-1,0.1-1.9,0.5-2.8C58.9,52.5,58.9,53.5,58.8,54.4z"/>
<path class="st20" d="M41.4,40.1c-0.3-0.1-0.7-0.1-1-0.2c0-0.6-0.7-0.7-0.9-1.1c0.4,0,0.8,0,1.2,0c0,0.2,0.2,0.3,0.4,0.3
	c0,0.2,0.1,0.3,0.4,0.3c0,0.1,0,0.1,0,0.2C41.4,39.7,41.4,39.9,41.4,40.1z"/>
<path class="st18" d="M36.7,52.8c0.3,0,0.6,0,0.9,0.1c0,0.3,0.3,0.5,0.2,0.9c-0.9-0.1-1.8-0.1-2.5-0.7
	C35.7,52.7,36.3,53.3,36.7,52.8z"/>
<path class="st10" d="M63.6,73.7c-0.1,0.8-0.7,0.9-1.3,0.9C62.2,73.6,62.2,73.6,63.6,73.7z"/>
<path class="st20" d="M37.6,50.2c-0.9-0.3-0.8-1.1-0.8-1.7c0-0.4,0.5-0.2,0.8-0.2C37.6,48.9,37.6,49.6,37.6,50.2z"/>
<path class="st12" d="M40.3,75.2c0.3,0.1,0.6,0.1,0.9,0.2c0,0.7-0.6,1-1,1.4C40.2,76.2,40.1,75.7,40.3,75.2z"/>
<path class="st16" d="M40.4,81.1c0.3-0.2,0-0.8,0.6-0.7c0.4,0.1,0.3,0.5,0.4,0.8c0.2,0.5-0.5,0.1-0.5,0.5c0,0-0.1,0-0.1,0.1
	C40.5,81.6,40.4,81.4,40.4,81.1z"/>
<path class="st14" d="M51.8,65.6c0.7,0.7,0.7,1.7,0,1.9C51.8,66.9,51.8,66.2,51.8,65.6z"/>
<path class="st15" d="M41.4,39.5c0-0.1,0-0.1,0-0.2c0-0.2-0.1-0.3-0.4-0.3c-0.2,0-0.3-0.1-0.4-0.3c0.6,0.1,1.5-0.5,1.4,0.8
	C41.9,39.5,41.7,39.5,41.4,39.5z"/>
<path class="st20" d="M36.9,59.3c0.6,0.1,0.4,1,1,1.1c0,0.2,0,0.5,0,0.7C37.1,60.7,36.9,60,36.9,59.3z"/>
<path class="st19" d="M30.9,47.9C30.9,47.9,31,47.9,30.9,47.9c0.5,0,0.9,0.2,0.8,0.6c-0.1,0.5-0.5,0.2-0.8,0.3
	C30.8,48.5,30.8,48.2,30.9,47.9z"/>
<path class="st12" d="M53.4,74.6c-0.8,0.3-0.7-0.4-0.9-0.8C53.3,73.5,53.6,73.8,53.4,74.6z"/>
<path class="st12" d="M52.1,73.7c-0.2,0.4-0.2,0.9-0.6,1.3c0-0.3,0-0.6,0-0.9C51.5,73.7,51.8,73.6,52.1,73.7z"/>
<path class="st19" d="M41.2,42.7c0.3-0.7,0.9-0.2,1.4-0.3c0,0.1,0.1,0.2,0.1,0.3C42.2,42.7,41.7,42.7,41.2,42.7z"/>
<path class="st12" d="M42.3,47.8c0.1-0.6,0.5-0.9,1-1.1c0,0.1,0,0.2,0.1,0.3C42.9,47.2,42.8,47.7,42.3,47.8z"/>
<path class="st10" d="M67.3,65.2c0.2-0.5,0.4-0.8,0.9-1c0,0.2,0,0.4,0,0.6C67.8,64.8,67.7,65.3,67.3,65.2z"/>
<path class="st16" d="M65,74.6c0.3-0.6,0.9-0.2,1.3-0.3c0,0.1,0,0.2,0,0.3C65.9,74.6,65.4,74.6,65,74.6z"/>
<path class="st10" d="M49.5,74c-0.3,0.1-0.5,0.5-0.9,0.5c0-0.2,0-0.5,0-0.7C48.9,73.8,49.2,73.7,49.5,74z"/>
<path class="st19" d="M41.4,39.5c0.2,0,0.5,0,0.7,0c0,0.1,0,0.1,0,0.2c-0.3,0.1-0.4,0.4-0.8,0.4C41.4,39.9,41.4,39.7,41.4,39.5z"/>
<path class="st10" d="M75.9,38.8c-0.2,0.4-0.3,0.4-0.5,0C75.5,38.7,75.7,38.7,75.9,38.8z"/>
<path class="st12" d="M61.1,63.8c0.1,0,0.3,0,0.4,0c0,0.2-0.2,0.3-0.4,0.3C61.1,64.1,61.1,63.9,61.1,63.8z"/>
<path class="st15" d="M57.3,71.6L57.3,71.6c0.2-0.1,0.3,0,0.5,0C57.7,71.7,57.5,71.7,57.3,71.6z"/>
<path class="st15" d="M38.8,38.7c0,0.1,0,0.2,0,0.3c-0.1-0.1-0.2-0.2-0.2-0.3C38.7,38.7,38.7,38.7,38.8,38.7z"/>
<path class="st10" d="M46.1,82.4c0.1,0,0.1,0,0.2,0C46.2,82.5,46.2,82.5,46.1,82.4z"/>
<path class="st12" d="M40.2,77.5c0.1,0,0.1,0,0.2,0c-0.1,0.1-0.1,0.1-0.2,0.2C40.2,77.6,40.2,77.5,40.2,77.5z"/>
<path class="st10" d="M67.1,65.3L67.1,65.3C67.3,65.3,67.2,65.4,67.1,65.3z"/>
<path class="st10" d="M66.9,65.5L66.9,65.5C67.1,65.5,67,65.5,66.9,65.5z"/>
<path class="st16" d="M42.5,65.2c-0.6,0-1-0.4-0.6-0.8c0.8-0.9,0.2-1.7-0.1-2.5c-0.3-0.9-0.7-1.7-1.5-2.4c-0.2-0.2-0.2-0.4,0-0.6
	c0.2-0.2,0.5-0.1,0.6,0.1c0.3,0.3,0.5,0.7,0.7,1.1c0.5,1,1.6,1.5,2.2,2.4c0,0.5-0.5,0.7-0.5,1.2c-0.1,0.2-0.2,0.3-0.3,0.5
	C42.5,64.4,42.5,64.8,42.5,65.2z"/>
<path class="st18" d="M43.3,63.6c0-0.5,0.5-0.7,0.5-1.2c0.7,0,1,0.3,0.8,1c-0.4,1.1-0.3,2.2-0.4,3.3c-0.1,0.7-0.7,1.4-1.4,1.4
	c-0.3,0-0.3-0.4-0.6-0.5c0-0.2,0-0.5,0-0.7c0-0.6,0-1.2,0.2-1.8c0.1-0.4,0-0.9,0.5-1.1c-0.2,0.6-0.2,1.1-0.2,1.7
	c0,0.3,0.2,0.5,0.5,0.5s0.3-0.2,0.4-0.4c0.1-0.5,0.4-1,0.4-1.6C44.1,63.9,43.9,63.6,43.3,63.6z"/>
<path class="st18" d="M39.7,53c0.2-0.5-0.4-1.3,0.5-1.6c0,0.3,0,0.6,0,0.9C40,52.5,40.1,53,39.7,53z"/>
<path class="st14" d="M36.7,52.8c-0.4,0.5-1-0.1-1.4,0.2c-0.1,0-0.2,0-0.4,0c-0.1-0.1-0.2-0.1-0.4-0.2c0-0.2,0-0.5,0-0.7
	c0.2-0.8,0.6-0.9,1.2-0.4c0.1,0.1,0.3,0.1,0.4,0.2C36.2,52.3,36.5,52.5,36.7,52.8z"/>
<path class="st19" d="M35,54c0.6,0.2,0.5,0.8,0.5,1.3C34.7,55.1,35,54.5,35,54z"/>
<path class="st18" d="M57.2,54.4c-0.1,0-0.2,0-0.4,0c-0.4-0.1-0.4-0.4-0.3-0.7c0.1-0.6-0.1-1.1-0.5-1.4c0-0.7,0.5-1.4-0.3-2.2
	c-0.2-0.2,0.1-1,0.8-1.1c0,0.7,0,1.4,0,2.1C56.6,52.2,57.1,53.3,57.2,54.4z"/>
<path class="st20" d="M57.8,44.6c-0.1,1-0.5,1.9-0.7,2.8c-0.4-0.1-0.3-0.4-0.3-0.7c0.4-0.4,0.4-1,0.5-1.5
	C57.4,44.9,57.5,44.6,57.8,44.6z"/>
<path class="st20" d="M56.8,48.8c-0.1,0.1-0.2,0.1-0.4,0.2c0-0.4-0.2-1,0.5-1.1C56.9,48.2,56.9,48.5,56.8,48.8z"/>
<path class="st20" d="M56.1,62.8c0.8,0.2,0.9-0.6,1.3-0.9c0.2-0.2,0.3-0.6,0.7-0.3c0.2,0.2,0.1,0.5-0.1,0.8
	c-0.2,0.3-0.2,0.5-0.2,0.8c0,0.7,0,1.4,0,2.2c0,1.4,0,1.4-1.3,1.7c-1.4,0.3-2.1,0-2.7-1.3c-0.5-1.1-0.2-1.5,0.9-1.5
	C55.7,64.2,55.9,63.5,56.1,62.8L56.1,62.8z M56,64.5c-0.3,0.1-0.5,0.2-0.7,0.2c-0.8,0.3-0.9,0.9-0.3,1.5c0.6,0.5,1.2,0.4,1.6-0.2
	c0.2-0.2,0.7-0.3,0.5-0.7C56.9,64.9,56.5,64.6,56,64.5z"/>
<path class="st15" d="M36.4,43.3c0.2,0,0.3-0.1,0.5-0.1c0.8,0.7,0.8,0.8,0,1.4c-1,0.7-2,1.4-3,2.2c-0.3,0.2-0.7,0.3-1,0.1
	c-0.3-0.3-0.1-0.6,0-1c0.2-0.5,0.4-1,0.5-1.5c0.2,0,0.5,0.1,0.7-0.2c0.6-0.2,1.3-0.5,1.9-0.7C36.2,43.7,36.3,43.5,36.4,43.3z"/>
<path class="st18" d="M39,39.9c0.3,0.2,0.5,0.5,0,0.6c-0.6,0.2-1.2,0.5-1.9,0.4c-0.3-0.9-0.2-1,0.7-1C38.2,39.9,38.6,39.9,39,39.9z"
	/>
<path class="st19" d="M51.2,43.2c0-0.2,0-0.4,0-0.6c0.3,0,0.7-0.3,0.9,0.3C51.7,42.8,51.6,43.3,51.2,43.2z"/>
<path class="st17" d="M53.4,68.7c-0.3,0-0.5,0.1-0.6-0.3C53,68.3,53.3,68.4,53.4,68.7z"/>
<path class="st17" d="M54.2,69.1c-0.2,0-0.4-0.1-0.4-0.3C54.1,68.7,54.2,68.8,54.2,69.1z"/>
<path class="st20" d="M38.2,45.7c0,0.2,0,0.3,0,0.5c-0.3,0-0.5,0-0.7,0.2c-1,0.7-1,0.7-1.7-0.3C36.7,46.1,37.4,45.9,38.2,45.7z"/>
<path class="st20" d="M37.9,42.7c0.2-0.5,0.6-0.5,1.1-0.5C38.7,42.6,38.4,42.7,37.9,42.7z"/>
<path class="st16" d="M63.5,76c0.3-0.6,0.5-1.3,1.4-1.3C64.6,75.4,64.2,75.9,63.5,76z"/>
<path class="st13" d="M48.7,80.4c0-1.3,0.1-2.6,0.1-3.8c0.2,0,0.3,0,0.5,0c0.4,0.8,0.4,1.7,0.4,2.6C49.5,79.8,49.4,80.4,48.7,80.4z"
	/>
<path class="st10" d="M56.8,54.6c0.2,0.3,0.2,0.6-0.2,0.7c-0.7,0.2-1.4,0.4-2.2,0.5c-0.4,0.1-0.7,0-0.7-0.5c0.4-0.2,0.8-0.4,1.2-0.5
	c0.3,0.3,0.4,0.2,0.5-0.1C56,54.6,56.4,54.6,56.8,54.6z"/>
<path class="st12" d="M55.6,54.6c-0.1,0.3-0.3,0.4-0.5,0.1c0-0.1,0-0.1,0-0.2C55.2,54.6,55.4,54.6,55.6,54.6z"/>
<path class="st19" d="M36.4,43.3c-0.1,0.2-0.1,0.4-0.4,0.2C36.1,43.2,36.2,43.2,36.4,43.3z"/>
<path class="st12" d="M42,78.2c0,0.8,0.1,1.6,0.1,2.4c-0.8-0.7-1.4-1.5-1.2-2.6C41.3,78,41.6,78.1,42,78.2z"/>
<path class="st10" d="M49.3,76.6c-0.2,0-0.3,0-0.5,0c-0.1-0.4-0.2-0.8-0.3-1.2C49.4,75.1,49.6,74.9,49.3,76.6z"/>
<path class="st19" d="M41.1,39c0.2,0,0.4,0.1,0.4,0.3C41.2,39.4,41.1,39.3,41.1,39z"/>
<path class="st20" d="M43.3,63.6c0.6-0.1,0.7,0.2,0.7,0.8c0,0.6-0.3,1-0.4,1.6c0,0.2-0.1,0.4-0.4,0.4c-0.3,0-0.5-0.2-0.5-0.5
	c0-0.6,0-1.2,0.2-1.7C43.1,64,43.2,63.8,43.3,63.6z"/>
<path class="st19" d="M56,64.5c0.5,0.1,0.9,0.3,1.1,0.8c0.2,0.4-0.3,0.5-0.5,0.7c-0.5,0.6-1,0.8-1.6,0.2c-0.7-0.6-0.6-1.2,0.3-1.5
	C55.5,64.7,55.7,64.6,56,64.5z"/>
</svg>
